<?xml version="1.0" encoding="UTF-8" standalone="no"?>
<svg
   width="376.05963pt"
   height="215.64934pt"
   viewBox="0 0 376.05963 215.64933"
   version="1.1"
   id="svg117"
   sodipodi:docname="Figure 1.pdf"
   inkscape:export-filename="Figure 1.jpg"
   inkscape:export-xdpi="240"
   inkscape:export-ydpi="240"
   xmlns:inkscape="http://www.inkscape.org/namespaces/inkscape"
   xmlns:sodipodi="http://sodipodi.sourceforge.net/DTD/sodipodi-0.dtd"
   xmlns="http://www.w3.org/2000/svg"
   xmlns:svg="http://www.w3.org/2000/svg">
  <sodipodi:namedview
     id="namedview117"
     pagecolor="#ffffff"
     bordercolor="#000000"
     borderopacity="0.25"
     inkscape:showpageshadow="2"
     inkscape:pageopacity="0.0"
     inkscape:pagecheckerboard="0"
     inkscape:deskcolor="#d1d1d1"
     inkscape:document-units="pt"
     showgrid="false" />
  <defs
     id="defs5">
    <clipPath
       id="clip-0">
      <path
         clip-rule="nonzero"
         d="m 0,129 h 157 v 86.64844 H 0 Z m 0,0"
         id="path1" />
    </clipPath>
    <clipPath
       id="clip-1">
      <path
         clip-rule="nonzero"
         d="m 0,126 h 160 v 89.64844 H 0 Z m 0,0"
         id="path2" />
    </clipPath>
    <clipPath
       id="clip-2">
      <path
         clip-rule="nonzero"
         d="m 4,144 h 156 v 71.64844 H 4 Z m 0,0"
         id="path3" />
    </clipPath>
    <clipPath
       id="clip-3">
      <path
         clip-rule="nonzero"
         d="M 206,12 H 376.05859 V 164 H 206 Z m 0,0"
         id="path4" />
    </clipPath>
    <clipPath
       id="clip-4">
      <path
         clip-rule="nonzero"
         d="m 222,15 h 154.05859 v 85 H 222 Z m 0,0"
         id="path5" />
    </clipPath>
  </defs>
  <path
     fill-rule="nonzero"
     fill="#000000"
     fill-opacity="0.4"
     stroke-width="0.566929"
     stroke-linecap="butt"
     stroke-linejoin="miter"
     stroke="#000000"
     stroke-opacity="1"
     stroke-miterlimit="4"
     d="M 4.882812,2.816406 V 0.285156 H 17.953125 L 159.69531,2.339844 V 4.445312 L 18.011719,2.960938 11.5625,2.9375 l 0.07031,30.207031 5.863282,0.07813 -0.03125,3.019532 -12.921875,-0.269532 v -2.953125 l 5.09375,0.09375 V 2.894531 Z m 0,0"
     id="path6" />
  <path
     fill="none"
     stroke-width="0.566929"
     stroke-linecap="butt"
     stroke-linejoin="miter"
     stroke="#000000"
     stroke-opacity="1"
     stroke-miterlimit="4"
     d="M 17.863281,2.863281 V 0.195312"
     id="path7" />
  <path
     fill="none"
     stroke-width="0.566929"
     stroke-linecap="butt"
     stroke-linejoin="miter"
     stroke="#000000"
     stroke-opacity="1"
     stroke-dasharray="1.70079, 1.13386"
     stroke-miterlimit="4"
     d="m 11.730469,26.242188 7.910156,-0.355469 7.113281,-16.445313 h 7.378906 l 5.15625,15.46875 h 8.714844 L 55.027344,9.175781 h 7.554687 l 5.957031,14.667969 8,-0.535156 5.691407,-14.132813 7.46875,-0.089843 4.621093,13.691406 7.292968,-0.08984 5.42188,-13.601562 h 5.86718 l 4.71094,12.890624 c 0,0 6.9375,-0.08984 7.29297,-0.445312 0.35547,-0.355469 4.44531,-12.269531 4.44531,-12.269531 l 6.22266,-0.355469 3.82422,12.269531 6.57812,-0.445312 3.64453,-11.824219 h 4.71094"
     id="path8" />
  <path
     fill-rule="nonzero"
     fill="#000000"
     fill-opacity="0.4"
     stroke-width="0.566929"
     stroke-linecap="butt"
     stroke-linejoin="miter"
     stroke="#000000"
     stroke-opacity="1"
     stroke-miterlimit="4"
     d="M 17.550781,36.246094 159.51172,26.664062 v -2.175781 l -141.890626,8.84375"
     id="path9" />
  <path
     fill="none"
     stroke-width="0.566929"
     stroke-linecap="butt"
     stroke-linejoin="miter"
     stroke="#000000"
     stroke-opacity="1"
     stroke-miterlimit="4"
     d="m 11.550781,33.066406 c 0.421875,-0.01953 142.804689,-9.199218 142.804689,-9.199218 l 5.375,0.597656"
     id="path10" />
  <path
     fill="none"
     stroke-width="0.566929"
     stroke-linecap="butt"
     stroke-linejoin="miter"
     stroke="#000000"
     stroke-opacity="1"
     stroke-miterlimit="4"
     d="m 154.42187,23.730469 c 0,-0.597657 0.17579,-19.222657 0.17579,-19.222657"
     id="path11" />
  <path
     fill-rule="nonzero"
     fill="#000000"
     fill-opacity="0.2"
     d="m 11.859375,3.222656 0.08203,29.5 142.175785,-9.179687 0.125,-18.796875 z m 0,0"
     id="path12" />
  <path
     fill-rule="nonzero"
     fill="#000000"
     fill-opacity="0.4"
     d="m 17.789062,32.957031 v 0.07031 L 156.31641,24.382812 154.35156,24.15625 Z m 0,0"
     id="path13" />
  <path
     fill-rule="nonzero"
     fill="#000000"
     fill-opacity="0.4"
     stroke-width="0.566929"
     stroke-linecap="butt"
     stroke-linejoin="miter"
     stroke="#000000"
     stroke-opacity="1"
     stroke-miterlimit="4"
     d="m 4.722656,62.292969 143.625004,-18.75 10.875,0.75 -142.218754,19.96875 z m 0,0"
     id="path14" />
  <path
     fill="none"
     stroke-width="0.566929"
     stroke-linecap="butt"
     stroke-linejoin="miter"
     stroke="#000000"
     stroke-opacity="1"
     stroke-miterlimit="4"
     d="m 4.96875,62.242188 -0.00781,2.839843 4.542968,0.867188 v 22.5 l 1.96875,0.375 0.09375,-22.40625 5.859375,0.585937 -0.140625,-2.835937 0.128906,2.824219 141.742186,-20.175782 -0.21484,-2.5"
     id="path15" />
  <path
     fill-rule="nonzero"
     fill="#000000"
     fill-opacity="0.75"
     d="m 12.878906,66.628906 c 0.511719,0.757813 0.832032,1.625 2.226563,1.875 l 139.140621,-20.1875 v -0.496094 l -136.593746,19.519532 -0.519532,-0.05469 -3.9375,-0.386718"
     id="path16" />
  <path
     fill="none"
     stroke-width="0.566929"
     stroke-linecap="butt"
     stroke-linejoin="miter"
     stroke="#000000"
     stroke-opacity="1"
     stroke-miterlimit="4"
     d="m 11.613281,88.871094 8.015625,-1.5 6.515625,-16.59375 7.640625,-0.9375 6,13.640625 8.53125,-1.734375 c 0,0 6.09375,-15.328125 6.28125,-15.328125 0.1875,0 8.15625,-1.21875 8.15625,-1.21875 l 5.484375,12.75 8.015625,-1.546875 5.625,-14.203125 7.96875,-1.078125 4.921875,11.4375 6.937499,-0.84375 4.73438,-13.3125 6.75,-0.9375 4.96875,10.640625 c 0,0 6.875,-1.363281 6.89062,-1.40625 l 3.89063,-11.90625 6.42187,-0.796875 4.21875,9.84375 6.42188,-1.078125 3.46875,-11.203125 5.0625,-0.609375 -0.0937,-3.28125"
     id="path17" />
  <path
     fill="none"
     stroke-width="0.566929"
     stroke-linecap="butt"
     stroke-linejoin="miter"
     stroke="#000000"
     stroke-opacity="1"
     stroke-miterlimit="4"
     d="m 32.398438,70.144531 5.628906,13.429688 1.632812,-0.05859"
     id="path18" />
  <path
     fill="none"
     stroke-width="0.566929"
     stroke-linecap="butt"
     stroke-linejoin="miter"
     stroke="#000000"
     stroke-opacity="1"
     stroke-miterlimit="4"
     d="m 61.46875,65.617188 5.039062,12.363281 h 1.789063"
     id="path19" />
  <path
     fill="none"
     stroke-width="0.566929"
     stroke-linecap="butt"
     stroke-linejoin="miter"
     stroke="#000000"
     stroke-opacity="1"
     stroke-miterlimit="4"
     d="m 88.484375,61.539062 4.738281,11.140626 1.378906,-0.08984"
     id="path20" />
  <path
     fill="none"
     stroke-width="0.566929"
     stroke-linecap="butt"
     stroke-linejoin="miter"
     stroke="#000000"
     stroke-opacity="1"
     stroke-miterlimit="4"
     d="m 111.78516,57.894531 4.54297,10.441407 1.69531,-0.207032"
     id="path21" />
  <path
     fill="none"
     stroke-width="0.566929"
     stroke-linecap="butt"
     stroke-linejoin="miter"
     stroke="#000000"
     stroke-opacity="1"
     stroke-miterlimit="4"
     d="m 134.125,54.316406 3.74609,9.710938 1.625,-0.167969"
     id="path22" />
  <path
     fill-rule="nonzero"
     fill="#000000"
     fill-opacity="0.4"
     d="m 9.792969,88.207031 1.394531,0.277344 0.08594,-22.394531 5.835937,0.59375 L 17,64.5625 5.253906,62.675781 c 0,0 -0.027344,2.160157 -0.00391,2.164063 0.027344,0.0039 4.542969,0.863281 4.542969,0.863281 z m 0,0"
     id="path23" />
  <path
     fill-rule="nonzero"
     fill="#000000"
     fill-opacity="0.4"
     d="m 17.585938,64.46875 c -0.0039,0.01953 0.113281,2.191406 0.113281,2.191406 0,0 141.320311,-20.054687 141.308591,-20.085937 C 159,46.546875 158.93359,44.625 158.93359,44.625 Z m 0,0"
     id="path24" />
  <path
     fill-rule="nonzero"
     fill="#000000"
     fill-opacity="0.2"
     d="m 11.859375,66.746094 1.144531,0.113281 2.101563,1.660156 139.042971,-20.160156 0.0703,2.308594 -5.01563,0.621093 -3.42187,11.214844 -5.98828,1.019532 -4.25391,-9.84375 -6.84765,0.835937 -3.91407,12.046875 -6.44531,1.226562 -4.98828,-10.65625 -7.125,0.992188 -4.72656,13.316406 -6.55469,0.8125 c 0,0 -4.878906,-11.476562 -4.921875,-11.46875 -0.03906,0.01172 -8.351563,1.152344 -8.351563,1.152344 l -5.601562,14.21875 -7.648438,1.453125 -5.492187,-12.738281 -8.535156,1.300781 -0.05859,0.08203 -6.222656,15.242188 -8.15625,1.664062 -6,-13.640625 -8.027344,0.988281 c 0,0 -6.445313,16.597657 -6.503906,16.605469 -0.05859,0.0078 -7.65625,1.433594 -7.65625,1.433594 z m 0,0"
     id="path25" />
  <path
     fill-rule="nonzero"
     fill="#000000"
     fill-opacity="0.4"
     stroke-width="0.566929"
     stroke-linecap="butt"
     stroke-linejoin="miter"
     stroke="#000000"
     stroke-opacity="1"
     stroke-miterlimit="4"
     d="m 4.300781,109.73047 -0.09375,2.34375 13.171875,3.84375 -0.09375,-2.8125 0.08984,2.81641 142.105474,-37.476568 -0.0312,-2.054687 -142.17188,36.714845 -6.136719,-1.41406 v -6.97657 l 8.367187,-1.90625 6.917969,-16.726559 6.84375,-1.289062 c 0,0 5.695313,13.382812 5.835938,13.382812 0.140625,0 8.742187,-2.039062 8.742187,-2.039062 l 6.445313,-15.46875 8.015625,-1.453125 5.625,12.375 7.921875,-1.6875 c 0,0 5.789062,-14.390625 5.953125,-14.4375 0.164062,-0.04687 7.476562,-1.5 7.476562,-1.5 l 5.390625,11.484375 7.312503,-1.804688 4.875,-13.007812 6,-1.148438 4.875,10.265625 7.00781,-1.429687 c 0,0 4.17188,-12.398438 4.28907,-12.398438 0.11718,0 5.97656,-0.984375 5.97656,-0.984375 l 4.3125,9.796875 6.60937,-1.453125 3.72657,-11.226562 4.59375,-0.796875 c 0,0 -1.28907,-0.726563 -1.66407,-0.703125 -0.375,0.02344 -3.98437,0.796875 -3.98437,0.796875 l -3.84375,11.507812 -5.27344,1.171875 -4.26562,-9.46875 -7.54688,1.265625 -4.38281,12.046875 -5.60156,1.03125 -4.71094,-9.890625 -7.64063,1.242188 -4.80468,12.75 -6.046883,1.429687 -5.132812,-10.851562 -9.28125,1.804687 -5.8125,13.875 -6.46875,1.148438 -5.53125,-11.578125 -9.5625,1.640625 -6.609375,14.8125 -7.171875,1.757812 -5.648438,-12.890625 -8.203125,1.453125 c 0,0 -6.398437,16.078129 -6.820312,16.265629 -0.421875,0.1875 -8.601563,2.25 -8.601563,2.25 l -0.304687,7.07812 z m 0,0"
     id="path26" />
  <path
     fill-rule="nonzero"
     fill="#000000"
     fill-opacity="0.4"
     stroke-width="0.566929"
     stroke-linecap="butt"
     stroke-linejoin="miter"
     stroke="#000000"
     stroke-opacity="1"
     stroke-miterlimit="4"
     d="m 4.125,109.62891 c 0.210938,-0.0703 5.226562,-1.2461 5.226562,-1.2461"
     id="path27" />
  <path
     fill-rule="nonzero"
     fill="#000000"
     fill-opacity="0.4"
     stroke-width="0.566929"
     stroke-linecap="butt"
     stroke-linejoin="miter"
     stroke="#000000"
     stroke-opacity="1"
     stroke-miterlimit="4"
     d="M 11.4375,111.45703 154.75,75.832031 l 4.94922,0.484375"
     id="path28" />
  <path
     fill-rule="nonzero"
     fill="#000000"
     fill-opacity="0.4"
     stroke-width="0.566929"
     stroke-linecap="butt"
     stroke-linejoin="miter"
     stroke="#000000"
     stroke-opacity="1"
     stroke-miterlimit="4"
     d="m 154.73437,75.828125 c 0.0352,-0.46875 0.0234,-14.4375 0.0234,-14.4375"
     id="path29" />
  <path
     fill-rule="nonzero"
     fill="#000000"
     fill-opacity="0.2"
     d="m 11.425781,111.16797 143.031249,-35.554689 0.0117,-14.097656 -4.60156,0.796875 -3.71094,11.21875 -7.00391,1.542969 -4.30468,-9.8125 -5.63672,0.9375 -4.25,12.375 -7.39063,1.503906 -4.875,-10.261719 -5.625,1.074219 -4.86328,12.996094 -7.699218,1.898437 -5.386718,-11.492187 -7.132813,1.429687 -5.925781,14.4375 c 0,0 -8.285156,1.777344 -8.300781,1.765625 -0.01563,-0.01563 -5.625,-12.394531 -5.625,-12.394531 0,0 -7.644531,1.328125 -7.644531,1.390625 0.0039,0.06641 -6.4375,15.460937 -6.4375,15.460937 l -9.125,2.15625 -5.847657,-13.390624 -6.457031,1.195312 -6.914062,16.71875 -8.289063,1.88281 z m 0,0"
     id="path30" />
  <path
     fill-rule="nonzero"
     fill="#000000"
     fill-opacity="0.4"
     d="m 12.050781,111.60156 5.230469,1.20703 140.75391,-36.355465 -3.28125,-0.324219 z m 0,0"
     id="path31" />
  <path
     fill-rule="nonzero"
     fill="#000000"
     fill-opacity="0.4"
     d="m 5.148438,109.67578 3.910156,1.14844 0.101562,-2.10547 z m 0,0"
     id="path32" />
  <path
     fill-rule="nonzero"
     fill="#000000"
     fill-opacity="0.4"
     d="m 32.757812,70.257812 0.839844,-0.105468 5.765625,13.082031 -1.160156,0.04297 z m 0,0"
     id="path33" />
  <path
     fill-rule="nonzero"
     fill="#000000"
     fill-opacity="0.4"
     d="m 61.789062,65.636719 0.785157,-0.121094 5.242187,12.179687 h -1.117187 z m 0,0"
     id="path34" />
  <path
     fill-rule="nonzero"
     fill="#000000"
     fill-opacity="0.4"
     d="m 88.792969,61.550781 0.875,-0.121093 4.691406,10.902343 -0.945313,0.04687 z m 0,0"
     id="path35" />
  <path
     fill-rule="nonzero"
     fill="#000000"
     fill-opacity="0.4"
     d="m 112.10547,57.90625 0.90625,-0.125 4.75,10.15625 -1.25391,0.09766 z m 0,0"
     id="path36" />
  <path
     fill-rule="nonzero"
     fill="#000000"
     fill-opacity="0.4"
     d="m 134.46484,54.394531 0.71094,-0.08984 4.00781,9.332031 -1.125,0.08594 z m 0,0"
     id="path37" />
  <path
     fill-rule="nonzero"
     fill="#000000"
     fill-opacity="0.4"
     stroke-width="0.566929"
     stroke-linecap="butt"
     stroke-linejoin="miter"
     stroke="#000000"
     stroke-opacity="1"
     stroke-miterlimit="4"
     d="m 21.6875,162.55078 c 0,0 1.847656,0.33203 1.847656,0.33203 v -21.23047 l 6.007813,1.96875 L 166.58203,96.816406 166.44141,94.683594 29.453125,140.99219 16.722656,136.55078 v 2.41797 l 5.238282,2.08984 z m 0,0"
     id="path38" />
  <path
     fill="none"
     stroke-width="0.566929"
     stroke-linecap="butt"
     stroke-linejoin="miter"
     stroke="#000000"
     stroke-opacity="1"
     stroke-miterlimit="4"
     d="m 16.511719,136.43359 c 0.02344,-0.008 137.121091,-43.476559 137.179691,-43.476559 0.0586,0 12.97265,1.628907 12.97265,1.628907"
     id="path39" />
  <path
     fill-rule="nonzero"
     fill="#000000"
     fill-opacity="0.4"
     d="m 17.355469,136.46484 12.097656,4.21875 136.339845,-46.085934 -12.10938,-1.34375 z m 0,0"
     id="path40" />
  <path
     fill-rule="nonzero"
     fill="#000000"
     fill-opacity="0.75"
     d="m 23.824219,142.05859 3.722656,3.88672 L 160.97266,99.988281 160.80859,99.160156 29.507812,143.94922 Z m 0,0"
     id="path41" />
  <path
     fill="none"
     stroke-width="0.566929"
     stroke-linecap="butt"
     stroke-linejoin="miter"
     stroke="#000000"
     stroke-opacity="1"
     stroke-miterlimit="4"
     d="m 23.777344,162.86328 c 0,0 6.351562,-2.27344 6.445312,-2.39062 0.09375,-0.11719 6.09375,-16.00782 6.09375,-16.00782 l 9,-3.04687 c 0,0 5.765625,11.10937 5.859375,11.03906 0.09375,-0.0703 7.757813,-2.57812 7.757813,-2.57812 l 6.398437,-15.25782 8.226563,-3.02343 5.296875,10.3125 7.125,-2.4375 c 0,0 4.382812,-13.71094 4.59375,-13.78125 0.210937,-0.0703 8.460937,-3.02344 8.460937,-3.02344 l 5.156254,9.39844 5.88281,-2.20313 c 0,0 3.86719,-12.16406 4.40625,-12.42187 0.53906,-0.25782 7.5,-2.55469 7.5,-2.55469 0,0 4.64062,8.95312 4.85156,8.88281 0.21094,-0.0703 5.27344,-1.85156 5.27344,-1.85156 0,0 3.5625,-12.02344 3.89062,-12.14063 0.32813,-0.11718 6.9375,-2.22656 6.9375,-2.22656 l 3.86719,8.32031 4.45313,-1.26562 3.44531,-11.29688 c 0,0 6.30469,-1.66406 6.30469,-1.82812 0,-0.16406 -0.16407,-2.601564 -0.16407,-2.601564"
     id="path42" />
  <path
     fill="none"
     stroke-width="0.566929"
     stroke-linecap="butt"
     stroke-linejoin="miter"
     stroke="#000000"
     stroke-opacity="1"
     stroke-miterlimit="4"
     d="m 44.054688,142.07812 5.351562,10.57813 1.980469,-0.25391"
     id="path43" />
  <path
     fill="none"
     stroke-width="0.566929"
     stroke-linecap="butt"
     stroke-linejoin="miter"
     stroke="#000000"
     stroke-opacity="1"
     stroke-miterlimit="4"
     d="m 72.425781,132.19141 5.019531,10.02734 1.394532,-0.28125"
     id="path44" />
  <path
     fill="none"
     stroke-width="0.566929"
     stroke-linecap="butt"
     stroke-linejoin="miter"
     stroke="#000000"
     stroke-opacity="1"
     stroke-miterlimit="4"
     d="m 97.898438,123.25781 4.871092,9.08203 1.32422,-0.23047"
     id="path45" />
  <path
     fill="none"
     stroke-width="0.566929"
     stroke-linecap="butt"
     stroke-linejoin="miter"
     stroke="#000000"
     stroke-opacity="1"
     stroke-miterlimit="4"
     d="m 120.80078,115.45313 c 0.0352,0.13281 4.3086,8.33593 4.3086,8.33593 l 1.52343,-0.0664"
     id="path46" />
  <path
     fill="none"
     stroke-width="0.566929"
     stroke-linecap="butt"
     stroke-linejoin="miter"
     stroke="#000000"
     stroke-opacity="1"
     stroke-miterlimit="4"
     d="m 141.98047,108.08594 c 0.0508,0.11719 3.80469,7.96484 3.80469,7.96484 l 0.92578,-0.19922"
     id="path47" />
  <path
     fill-rule="nonzero"
     fill="#000000"
     fill-opacity="0.2"
     d="m 23.824219,142.05859 0.0078,20.44532 6.167969,-2.2461 6.058594,-16.07422 9.363281,-3.15234 5.90625,11.03906 7.359375,-2.4375 6.410156,-15.26953 8.578125,-3.19922 5.332031,10.35938 6.714844,-2.29688 c 0,0 4.523438,-13.80468 4.617188,-13.8164 0.09375,-0.0117 8.789062,-3.14063 8.789062,-3.14063 l 5.226566,9.38672 5.47266,-2.03906 2.90625,-8.8125 1.45312,-3.58594 7.95703,-2.69531 4.75781,8.90625 4.96875,-1.75781 3.83203,-12.11719 c 0,0 7.3711,-2.44922 7.39454,-2.39063 0.0234,0.0586 3.86718,8.34375 3.86718,8.34375 l 4.05469,-1.13672 3.44531,-11.35546 6.21094,-1.72266 -0.0508,-1.17578 -133.097658,45.85547 z m 0,0"
     id="path48" />
  <path
     fill-rule="nonzero"
     fill="#000000"
     fill-opacity="0.4"
     d="m 44.347656,142.04687 0.808594,-0.27734 5.523438,10.42578 -1.109376,0.13281 z m 0,0"
     id="path49" />
  <path
     fill-rule="nonzero"
     fill="#000000"
     fill-opacity="0.4"
     d="m 72.789062,132.17578 4.804688,9.71094 0.878906,-0.082 -5.054687,-9.84766 z m 0,0"
     id="path50" />
  <path
     fill-rule="nonzero"
     fill="#000000"
     fill-opacity="0.4"
     d="m 98.230469,123.27344 0.679687,-0.23047 4.820314,8.8164 -0.77734,0.16407 z m 0,0"
     id="path51" />
  <path
     fill-rule="nonzero"
     fill="#000000"
     fill-opacity="0.4"
     d="m 121.13281,115.47656 0.69532,-0.25 4.39453,8.20313 -0.94922,0.0469 z m 0,0"
     id="path52" />
  <path
     fill-rule="nonzero"
     fill="#000000"
     fill-opacity="0.4"
     d="m 142.29687,108.07031 0.47266,-0.16015 3.57813,7.69922 -0.39844,0.10937 z m 0,0"
     id="path53" />
  <g
     clip-path="url(#clip-0)"
     id="g54">
    <path
       fill-rule="nonzero"
       fill="#000000"
       fill-opacity="0.4"
       d="m 0.285156,209.00391 13.421875,6.33203 142.957029,-65.84375 v -1.97266 l -6.03125,-1.58984 -142.968748,63.9375 0.058594,-7.16016 8.460938,-3.60937 6,-16.40625 7.476562,-3 5.601563,11.23828 9.140625,-4.16016 6.1875,-15.5625 7.429687,-3.14062 5.550781,10.68359 8.511719,-3.86328 5.507813,-14.90625 6.773437,-2.69531 5.242188,10.03906 8.234375,-3.52344 c 0,0 4.898436,-13.85156 5.015626,-13.94531 0.11719,-0.0937 5.69531,-2.34375 5.69531,-2.34375 l 5.08985,9.51172 7.42578,-3.25391 c 0.0195,-0.008 4.24218,-13.19531 4.24218,-13.19531 0,0 5.76563,-2.61719 5.90625,-2.54688 0.14063,0.0703 4.64453,9.44532 4.70313,9.44532 0.0273,0 5.35156,-2.70313 5.35156,-2.70313 l 3.86719,-12.28125 5.15625,-2.01562 -1.7461,-0.58594 -4.53515,2.10937 -4.17188,12.35157 -4.47656,2.02343 -4.45312,-9.38281 -6.65625,2.88281 -4.57032,13.38282 -6.53906,2.83593 -5.22656,-9.89062 -6.51563,2.83594 -5.062496,14.29687 -7.21875,3.04688 -5.273438,-10.17188 -7.476562,3.07031 -5.414063,14.92969 -7.875,3.53906 -5.789062,-11.0625 -8.015625,3.79688 -6.046875,15.60937 -8.554688,3.65625 -5.601562,-11.32031 -8.109375,3.39844 -6.128906,16.60937 -8.355469,3.64453 -0.097657,7.29297 -6.097656,-3.08203 z m 0,0"
       id="path54" />
  </g>
  <g
     clip-path="url(#clip-1)"
     id="g55">
    <path
       fill="none"
       stroke-width="0.566929"
       stroke-linecap="butt"
       stroke-linejoin="miter"
       stroke="#000000"
       stroke-opacity="1"
       stroke-miterlimit="4"
       d="m 0.285156,209.00391 13.421875,6.33203 142.957029,-65.84375 v -1.97266 l -6.03125,-1.58984 -142.968748,63.9375 0.058594,-7.16016 8.460938,-3.60937 6,-16.40625 7.476562,-3 5.601563,11.23828 9.140625,-4.16016 6.1875,-15.5625 7.429687,-3.14062 5.550781,10.68359 8.511719,-3.86328 5.507813,-14.90625 6.773437,-2.69531 5.242188,10.03906 8.234375,-3.52344 c 0,0 4.898436,-13.85156 5.015626,-13.94531 0.11719,-0.0937 5.69531,-2.34375 5.69531,-2.34375 l 5.08985,9.51172 7.42578,-3.25391 c 0.0195,-0.008 4.24218,-13.19531 4.24218,-13.19531 0,0 5.76563,-2.61719 5.90625,-2.54688 0.14063,0.0703 4.64453,9.44532 4.70313,9.44532 0.0273,0 5.35156,-2.70313 5.35156,-2.70313 l 3.86719,-12.28125 5.15625,-2.01562 -1.7461,-0.58594 -4.53515,2.10937 -4.17188,12.35157 -4.47656,2.02343 -4.45312,-9.38281 -6.65625,2.88281 -4.57032,13.38282 -6.53906,2.83593 -5.22656,-9.89062 -6.51563,2.83594 -5.062496,14.29687 -7.21875,3.04688 -5.273438,-10.17188 -7.476562,3.07031 -5.414063,14.92969 -7.875,3.53906 -5.789062,-11.0625 -8.015625,3.79688 -6.046875,15.60937 -8.554688,3.65625 -5.601562,-11.32031 -8.109375,3.39844 -6.128906,16.60937 -8.355469,3.64453 -0.097657,7.29297 -6.097656,-3.08203 z m 0,0"
       id="path55" />
  </g>
  <g
     clip-path="url(#clip-2)"
     id="g56">
    <path
       fill="none"
       stroke-width="0.566929"
       stroke-linecap="butt"
       stroke-linejoin="miter"
       stroke="#000000"
       stroke-opacity="1"
       stroke-miterlimit="4"
       d="m 7.480469,210.05469 c 0.1875,-0.0703 6.21875,2.91797 6.21875,2.91797 l 0.04687,2.32031 -0.07031,-2.34375 142.625001,-65.42969"
       id="path56" />
  </g>
  <path
     fill="none"
     stroke-width="0.566929"
     stroke-linecap="butt"
     stroke-linejoin="miter"
     stroke="#000000"
     stroke-opacity="1"
     stroke-miterlimit="4"
     d="m 0.105469,206.10547 6.152343,-2.07422"
     id="path57" />
  <path
     fill="none"
     stroke-width="0.566929"
     stroke-linecap="butt"
     stroke-linejoin="miter"
     stroke="#000000"
     stroke-opacity="1"
     stroke-miterlimit="4"
     d="m 150.74219,146.02734 c 0,-0.11718 0.0898,-15.5664 0.0898,-15.5664"
     id="path58" />
  <path
     fill-rule="nonzero"
     fill="#000000"
     fill-opacity="0.2"
     d="m 7.957031,209.41406 142.640629,-63.78515 -0.0508,-14.94532 -5.17968,2.01563 -3.86328,12.28125 -5.40625,2.67969 -0.3086,0.0469 -4.59765,-9.41016 -5.64844,2.5 -4.26172,13.14454 -7.82031,3.45703 c 0,0 -5.01563,-9.53516 -5.0586,-9.51172 -0.0391,0.0234 -5.33203,2.1875 -5.33203,2.1875 l -5.003904,13.98047 -8.613281,3.66015 -5.226563,-10.03515 c 0,0 -6.433593,2.41797 -6.433593,2.51953 0,0.0977 -5.449219,14.89844 -5.449219,14.89844 0,0 -8.820312,4.35937 -8.902344,4.04296 -0.08203,-0.3125 -5.566406,-10.70703 -5.566406,-10.70703 0,0 -7.042969,2.95313 -7.0625,3.01953 -0.01563,0.0664 -6.195312,15.57813 -6.195312,15.57813 l -9.546876,4.30859 -5.550781,-11.23828 -7.078125,2.82031 -6.015625,16.4375 -8.4375,3.53125 z m 0,0"
     id="path59" />
  <path
     fill-rule="nonzero"
     fill="#000000"
     fill-opacity="0.4"
     d="m 0.75,206.17578 5.34375,2.73047 0.058594,-4.52344 z m 0,0"
     id="path60" />
  <path
     fill-rule="nonzero"
     fill="#000000"
     fill-opacity="0.2"
     stroke-width="0.566929"
     stroke-linecap="butt"
     stroke-linejoin="miter"
     stroke="#000000"
     stroke-opacity="1"
     stroke-miterlimit="4"
     d="m 22.425781,168.00391 v 8.55078 l 7.289063,-2.6836 v -8.68359 z m 0,0"
     id="path61" />
  <path
     fill="none"
     stroke-width="0.566929"
     stroke-linecap="butt"
     stroke-linejoin="miter"
     stroke="#000000"
     stroke-opacity="1"
     stroke-miterlimit="4"
     d="m 22.175781,176.66797 h -1.546875 l 0.0078,-9.32813 7.269531,-3.0664 2,0.76953"
     id="path62" />
  <path
     fill-rule="nonzero"
     fill="#000000"
     fill-opacity="0.4"
     d="m 20.914062,176.38281 h 1.222657 l -0.0078,-8.5664 7.066406,-2.73829 -1.300781,-0.5039 -6.988281,2.97265 z m 0,0"
     id="path63" />
  <path
     fill="none"
     stroke-width="0.566929"
     stroke-linecap="butt"
     stroke-linejoin="miter"
     stroke="#000000"
     stroke-opacity="1"
     stroke-miterlimit="4"
     d="m 20.777344,167.36328 1.710937,0.75"
     id="path64" />
  <path
     fill-rule="nonzero"
     fill="#000000"
     fill-opacity="0.2"
     stroke-width="0.566929"
     stroke-linecap="butt"
     stroke-linejoin="miter"
     stroke="#000000"
     stroke-opacity="1"
     stroke-miterlimit="4"
     d="m 50.652344,165.33203 c 0.75,-0.375 7.601562,-2.95703 7.601562,-2.95703 0,0 -0.207031,-6.37109 0,-8.25391 0,-0.0234 -7.640625,3.11719 -7.640625,3.11719 z m 0,0"
     id="path65" />
  <path
     fill="none"
     stroke-width="0.566929"
     stroke-linecap="butt"
     stroke-linejoin="miter"
     stroke="#000000"
     stroke-opacity="1"
     stroke-miterlimit="4"
     d="m 58.40625,154.40234 -1.863281,-0.98437 -7.3125,3.11719 -0.04687,8.71875 1.265625,0.25781"
     id="path66" />
  <path
     fill-rule="nonzero"
     fill="#000000"
     fill-opacity="0.4"
     d="m 49.464844,165.01562 c 0.05469,-0.0156 0.894531,0.1875 0.894531,0.1875 l -0.05078,-8.19921 7.054687,-2.8125 -0.84375,-0.49219 -7.007812,3 z m 0,0"
     id="path67" />
  <path
     fill-rule="nonzero"
     fill="#000000"
     fill-opacity="0.2"
     stroke-width="0.566929"
     stroke-linecap="butt"
     stroke-linejoin="miter"
     stroke="#000000"
     stroke-opacity="1"
     stroke-miterlimit="4"
     d="m 78.125,154.45703 c 0.28125,-0.13281 6.796875,-2.39453 6.796875,-2.39453 l 0.04687,-7.9375 -6.761719,2.88281 z m 0,0"
     id="path68" />
  <path
     fill="none"
     stroke-width="0.566929"
     stroke-linecap="butt"
     stroke-linejoin="miter"
     stroke="#000000"
     stroke-opacity="1"
     stroke-miterlimit="4"
     d="m 77.910156,154.5625 -1.472656,-0.13672 0.08203,-8.17969 7.042969,-2.91797 1.625,0.66407"
     id="path69" />
  <path
     fill-rule="nonzero"
     fill="#000000"
     fill-opacity="0.4"
     d="m 77.820312,154.26562 -1.085937,-0.0977 0.07422,-7.74219 6.769531,-2.80859 0.894531,0.39843 -6.578125,2.82422 z m 0,0"
     id="path70" />
  <path
     fill="none"
     stroke-width="0.566929"
     stroke-linecap="butt"
     stroke-linejoin="miter"
     stroke="#000000"
     stroke-opacity="1"
     stroke-miterlimit="4"
     d="m 49.296875,156.59375 1.375,0.67187"
     id="path71" />
  <path
     fill="none"
     stroke-width="0.566929"
     stroke-linecap="butt"
     stroke-linejoin="miter"
     stroke="#000000"
     stroke-opacity="1"
     stroke-miterlimit="4"
     d="m 76.566406,146.3125 c 0.101563,0 1.691406,0.69531 1.691406,0.69531"
     id="path72" />
  <path
     fill="none"
     stroke-width="0.566929"
     stroke-linecap="butt"
     stroke-linejoin="miter"
     stroke="#000000"
     stroke-opacity="1"
     stroke-miterlimit="4"
     d="m 102.88672,144.78516 c -0.0156,-0.11329 -0.0352,-7.80469 -0.0352,-7.80469 l 5.98438,-1.95703"
     id="path73" />
  <path
     fill="none"
     stroke-width="0.566929"
     stroke-linecap="butt"
     stroke-linejoin="miter"
     stroke="#000000"
     stroke-opacity="1"
     stroke-miterlimit="4"
     d="m 101.35156,144.09766 c -0.0156,-0.11719 -0.0352,-7.80469 -0.0352,-7.80469 l 5.98437,-1.95703"
     id="path74" />
  <path
     fill="none"
     stroke-width="0.566929"
     stroke-linecap="butt"
     stroke-linejoin="miter"
     stroke="#000000"
     stroke-opacity="1"
     stroke-miterlimit="4"
     d="m 101.19531,143.99219 c 0,0 1.47657,0.89453 1.65625,0.80859 0.1836,-0.082 6.03516,-2.35156 6.03516,-2.35156 l 0.16406,-7.47266 -1.9375,-0.58203"
     id="path75" />
  <path
     fill-rule="nonzero"
     fill="#000000"
     fill-opacity="0.2"
     d="m 103.13281,137.21094 0.0352,7.1289 5.43359,-2.10547 0.13282,-6.84375 z m 0,0"
     id="path76" />
  <path
     fill-rule="nonzero"
     fill="#000000"
     fill-opacity="0.4"
     d="m 102.57031,144.38672 -0.94531,-0.46094 -0.0664,-7.47656 5.57032,-1.78906 0.89453,0.36328 c 0,0 -5.46875,1.66015 -5.46875,1.74218 0,0.082 0.0156,7.6211 0.0156,7.6211 z m 0,0"
     id="path77" />
  <path
     fill="none"
     stroke-width="0.566929"
     stroke-linecap="butt"
     stroke-linejoin="miter"
     stroke="#000000"
     stroke-opacity="1"
     stroke-miterlimit="4"
     d="m 125.73828,135.58984 -0.16406,-6.96093 5.5,-2.28907"
     id="path78" />
  <path
     fill="none"
     stroke-width="0.566929"
     stroke-linecap="butt"
     stroke-linejoin="miter"
     stroke="#000000"
     stroke-opacity="1"
     stroke-miterlimit="4"
     d="m 129.70703,125.78906 -5.5,2.28516 0.16406,6.96094 1.33594,0.45312 5.66797,-1.98828 -0.19922,-7.125 z m 0,0"
     id="path79" />
  <path
     fill-rule="nonzero"
     fill="#000000"
     fill-opacity="0.2"
     d="m 125.84766,128.83203 c 0.15234,-0.0703 5.01562,-2.09765 5.01562,-2.09765 l 0.19922,6.58593 -5.02734,1.7461 z m 0,0"
     id="path80" />
  <path
     fill-rule="nonzero"
     fill="#000000"
     fill-opacity="0.4"
     d="m 125.4375,135.08984 -0.78516,-0.28125 -0.16406,-6.48047 5.23828,-2.21484 0.59766,0.22266 -5.07422,2.10937 0.16406,6.59766"
     id="path81" />
  <path
     fill="none"
     stroke-width="0.566929"
     stroke-linecap="butt"
     stroke-linejoin="miter"
     stroke="#000000"
     stroke-opacity="1"
     stroke-miterlimit="4"
     d="m 145.80469,127.56641 c 0,0 -0.21094,-6.45703 -0.12891,-6.51563 0.082,-0.0586 4.55859,-1.89844 4.55859,-1.89844"
     id="path82" />
  <path
     fill="none"
     stroke-width="0.566929"
     stroke-linecap="butt"
     stroke-linejoin="miter"
     stroke="#000000"
     stroke-opacity="1"
     stroke-miterlimit="4"
     d="m 148.98828,118.40234 c 0,0 -4.47656,1.83985 -4.55859,1.89844 -0.082,0.0586 0.1289,6.51563 0.1289,6.51563 0,0 1,0.80859 1.17578,0.76172 0.17579,-0.0469 4.78125,-1.81641 4.78125,-1.81641 l -0.28125,-6.64844 z m 0,0"
     id="path83" />
  <path
     fill-rule="nonzero"
     fill="#000000"
     fill-opacity="0.2"
     d="m 145.95703,121.22656 c 0,0 3.97266,-1.8164 3.97266,-1.67578 0,0.14063 0.28125,5.98828 0.28125,5.98828 l -4.11328,1.59375 z m 0,0"
     id="path84" />
  <path
     fill-rule="nonzero"
     fill="#000000"
     fill-opacity="0.4"
     d="m 145.51172,127.16797 -0.72656,-0.51563 -0.10547,-6.19921 4.3125,-1.76954 0.64453,0.41016 -4.27735,1.78125 0.11719,6.24609 z m 0,0"
     id="path85" />
  <path
     fill-rule="nonzero"
     fill="#000000"
     fill-opacity="1"
     stroke-width="0.566929"
     stroke-linecap="butt"
     stroke-linejoin="miter"
     stroke="#000000"
     stroke-opacity="1"
     stroke-miterlimit="4"
     d="m 183.73828,83.621094 11.4375,-0.09375 0.0234,2.25 11.32031,-4.359375 -11.41797,-4 -0.0195,2.21875 -11.35547,-0.07813 z m 0,0"
     id="path86" />
  <path
     fill-rule="nonzero"
     fill="#000000"
     fill-opacity="0.4"
     d="m 210.04297,151.11328 c 0.0117,0.043 12.55469,9.07031 12.55469,9.07031 l 143.38671,-97.679684 -0.16406,-1.855468 -4.74219,-1.824219 -143.1875,94.796871 -0.46484,-6.6289 6.82813,-4.3086 8.21875,-19.22265 0.26562,-30.894534 5.50391,3.316406 137.48828,-75.375 -0.53125,-2.054687 -11.07031,-2.585937 -138.01954,70.734374 0.0664,2.851563 4.90625,2.585937 -0.33203,31.222658 -8.15234,19.15625 -6.42969,4.04297 v 6.89453 l -5.90235,-4.375 z m 0,0"
     id="path87" />
  <g
     clip-path="url(#clip-3)"
     id="g88">
    <path
       fill="none"
       stroke-width="0.566929"
       stroke-linecap="butt"
       stroke-linejoin="miter"
       stroke="#000000"
       stroke-opacity="1"
       stroke-miterlimit="4"
       d="m 210.04297,151.11328 c 0.0117,0.043 12.55469,9.07031 12.55469,9.07031 l 143.38671,-97.679684 -0.16406,-1.855468 -4.74219,-1.824219 -143.1875,94.796871 -0.46484,-6.6289 6.82813,-4.3086 8.21875,-19.22265 0.26562,-30.894534 5.50391,3.316406 137.48828,-75.375 -0.53125,-2.054687 -11.07031,-2.585937 -138.01954,70.734374 0.0664,2.851563 4.90625,2.585937 -0.33203,31.222658 -8.15234,19.15625 -6.42969,4.04297 v 6.89453 l -5.90235,-4.375 z m 0,0"
       id="path88" />
  </g>
  <path
     fill="none"
     stroke-width="0.566929"
     stroke-linecap="butt"
     stroke-linejoin="miter"
     stroke="#000000"
     stroke-opacity="1"
     stroke-miterlimit="4"
     d="m 217.73047,154.00391 4.96875,3.65625 -0.0937,2.48437 0.10547,-2.47266 142.91015,-96.949214"
     id="path89" />
  <path
     fill="none"
     stroke-width="0.566929"
     stroke-linecap="butt"
     stroke-linejoin="miter"
     stroke="#000000"
     stroke-opacity="1"
     stroke-miterlimit="4"
     d="m 210.17969,148.69531 13.14453,-8.10937"
     id="path90" />
  <path
     fill="none"
     stroke-width="0.566929"
     stroke-linecap="butt"
     stroke-linejoin="miter"
     stroke="#000000"
     stroke-opacity="1"
     stroke-miterlimit="4"
     d="m 245.99609,92.367188 c 0,0.167968 -6.16406,15.777342 -6.16406,15.777342 l 0.13281,11.46875 5.28125,9.6875 9,-5.48437 6.75,-17.625 -0.0937,-11.109379 -4.21875,-6.234375 16.78125,-9.328125 -4.59375,11.859375 0.0937,10.265624 5.71875,8.85938 8.0625,-5.20313 5.625,-15.468749 -0.1875,-10.3125 -4.17187,-5.671875 15,-8.390625 -3.51563,10.640625 -0.23437,9.5625 5.71875,8.0625 7.03125,-4.453125 5.0625,-15.09375 c 0,0 -0.5625,-8.859375 -0.5625,-9.28125 0,-0.421875 -3.46875,-5.484375 -3.46875,-5.484375 l 12.89062,-7.265625 -2.76562,10.125 0.14062,8.578125 4.92188,7.359375 6.70312,-4.125 4.5,-13.03125 c 0.11719,-2.992187 0.23047,-6.039062 0.34766,-8.972656 0,0 -3.67578,-5.371094 -3.62891,-5.558594 0.0469,-0.1875 12.5625,-6.84375 12.5625,-6.84375 0,0 -3.42187,8.625 -3.23437,9.609375 0.1875,0.984375 0.28125,7.828125 0.28125,7.828125 l 4.125,6.5625 6.28125,-3.09375 4.125,-12.515625 -0.32813,-8.671875 -2.90625,-4.6875 10.5,-5.53125 -2.85937,9 0.28125,20.8125"
     id="path91" />
  <path
     fill-rule="nonzero"
     fill="#000000"
     fill-opacity="0.75"
     d="m 233.33594,93.296875 3.77734,6.199219 7.55859,-4.410156 0.9961,-2.683594 8.55078,-4.441406 1.09375,1.722656 18.66016,-10.738282 1.02734,-2.488281 7.00391,-3.902343 1.16406,1.914062 16.32812,-9.742188 0.72657,-2.121093 7.0625,-3.714844 0.67578,0.910156 14.32422,-8.0625 0.30859,-1.867187 7.41406,-3.816406 0.81641,1.296874 14.44531,-8.378906 0.26563,-1.492187 6.05078,-3.578125 c 0,0 0.41406,1.097656 0.74609,1 0.33203,-0.101563 11.66406,-6.371094 11.66406,-6.371094 l 0.73047,-1.492188 -126.48828,69.179688 z m 0,0"
     id="path92" />
  <path
     fill-rule="nonzero"
     fill="#000000"
     fill-opacity="0.2"
     d="m 217.71875,147.13672 0.43359,5.95312 142.52344,-94.335934 -0.32812,-20.648437 2.69531,-8.367188 -9.5625,5.109375 2.77734,5.039063 0.36328,8.25 -4.19531,12.65625 -6.65625,3.257812 -4.33594,-6.820312 -0.28125,-8.390625 3,-8.507813 -11.60156,6.304688 3.46875,5.390625 c 0,0 -0.28125,8.953125 -0.28125,9.117187 0,0.164063 -4.57031,13.125 -4.57031,13.125 l -7.03125,4.382813 -5.13281,-7.710938 -0.21094,-8.695312 2.64844,-9.492188 -12,6.679688 3.375,5.34375 0.58593,9.398437 -5.17968,15.328125 -7.3125,4.59375 -5.95313,-8.320312 0.21094,-9.773438 3.28125,-9.960937 -14.01563,7.898437 4.07813,5.53125 0.16406,10.453125 c 0,0 -5.53125,15.515629 -5.67187,15.609379 -0.14063,0.0937 -8.39063,5.41406 -8.39063,5.41406 l -5.97656,-9.23438 -0.0937,-10.453121 4.38281,-11.15625 -15.82031,8.859375 4.125,6.070312 0.0703,11.226564 -6.82031,17.78906 -9.35156,5.71875 -5.48438,-10.00781 -0.11719,-11.67188 5.13282,-12.960934 -7.54688,4.359375 -3.84375,-6.210937 -0.23437,-0.117188 -0.23438,30.375004 c 0,0 -8.01562,18.98437 -8.27344,19.28906 -0.25781,0.30469 -6.80859,4.3125 -6.80859,4.3125 z m 0,0"
     id="path93" />
  <path
     fill-rule="nonzero"
     fill="#000000"
     fill-opacity="0.4"
     d="m 215.83203,152.78516 c 0,0 -5.57812,-3.86719 -5.32031,-3.98438 0.25781,-0.11719 12.23437,-7.57031 12.23437,-7.57031 0,0 -0.30468,0.91406 -0.42187,0.98437 -0.11719,0.0703 -6.49219,4.125 -6.49219,4.125 z m 0,0"
     id="path94" />
  <path
     fill="none"
     stroke-width="0.566929"
     stroke-linecap="butt"
     stroke-linejoin="miter"
     stroke="#000000"
     stroke-opacity="1"
     stroke-miterlimit="4"
     d="m 245.96875,92.351562 8.26562,-4.359374 1.11719,1.722656 4.16016,5.78125 -0.25391,10.652346 -6.08594,16.6875 -8.52343,5.02344"
     id="path95" />
  <path
     fill="none"
     stroke-width="0.566929"
     stroke-linecap="butt"
     stroke-linejoin="miter"
     stroke="#000000"
     stroke-opacity="1"
     stroke-miterlimit="4"
     d="m 273.16406,79.855469 c 0.0899,-0.199219 1.86328,-3.40625 1.86328,-3.40625 l 6.78907,-3.671875 1.29687,1.746094 3.53516,5.117187 v 10.023437 c 0,0.179688 -4.96485,14.363278 -4.96485,14.363278 l -7.89062,4.64454"
     id="path96" />
  <path
     fill="none"
     stroke-width="0.566929"
     stroke-linecap="butt"
     stroke-linejoin="miter"
     stroke="#000000"
     stroke-opacity="1"
     stroke-miterlimit="4"
     d="m 298.92578,65.527344 c 0,-0.09766 1.05469,-2.886719 1.05469,-2.886719 l 7.30859,-3.75 4.03125,6.175781 0.14063,9.089844 -4.9336,13.757812 -6.69531,3.984376"
     id="path97" />
  <path
     fill="none"
     stroke-width="0.566929"
     stroke-linecap="butt"
     stroke-linejoin="miter"
     stroke="#000000"
     stroke-opacity="1"
     stroke-miterlimit="4"
     d="m 321.875,52.371094 c 0.0391,-0.34375 0.72266,-2.277344 0.72266,-2.277344 0,0 7.28906,-4.046875 7.35156,-4.011719 0.0625,0.03906 4.18359,6.542969 4.18359,6.542969 0,0 -0.39453,8.027344 -0.39453,8.191406 0,0.164063 -4.03125,11.921875 -4.03125,11.921875 l -6.33984,3.917969"
     id="path98" />
  <path
     fill="none"
     stroke-width="0.566929"
     stroke-linecap="butt"
     stroke-linejoin="miter"
     stroke="#000000"
     stroke-opacity="1"
     stroke-miterlimit="4"
     d="m 344.625,39.828125 c 0,-0.08984 0.55469,-2.097656 0.55469,-2.097656 l 6.40234,-3.511719 3.08594,5.574219 v 8.5 l -3.58594,11.046875 -5.82812,2.960937"
     id="path99" />
  <path
     fill-rule="nonzero"
     fill="#000000"
     fill-opacity="0.4"
     d="m 255.56641,89.542969 c 0,0 0.85156,-0.519531 0.88281,-0.503907 0.0312,0.01172 4.15234,6.121094 4.15234,6.121094 0,0 0.082,10.867184 0.0899,10.957034 0.004,0.0898 -6.66016,17.49219 -6.6836,17.5039 -0.0273,0.0156 -8.65625,5.33985 -8.65625,5.26953 0,-0.0703 -0.44922,-0.84375 -0.44922,-0.84375 l 8.50782,-5.00781 6.15234,-16.8125 0.22656,-10.906248 z m 0,0"
     id="path100" />
  <g
     clip-path="url(#clip-4)"
     id="g101">
    <path
       fill="none"
       stroke-width="0.566929"
       stroke-linecap="butt"
       stroke-linejoin="miter"
       stroke="#000000"
       stroke-opacity="1"
       stroke-miterlimit="4"
       d="m 226.10937,86.777344 12.30079,6.632812 -0.17969,2.40625 0.17969,-2.367187 136.64062,-74.71875"
       id="path101" />
  </g>
  <path
     fill-rule="nonzero"
     fill="#000000"
     fill-opacity="0.4"
     d="m 274.77734,110.01563 7.71094,-4.94922 5.63281,-15.277348 -0.2539,-10.113281 -4.08594,-5.523437 -0.42969,0.144531 3.58594,5.164063 v 10.292968 l -4.94922,14.417974 -8,4.66015 z m 0,0"
     id="path102" />
  <path
     fill-rule="nonzero"
     fill="#000000"
     fill-opacity="0.4"
     d="m 301.05078,93.320312 6.74219,-4.265624 4.94922,-14.902344 -0.51953,-9.308594 -3.57032,-5.484375 -0.44922,0.320313 3.42579,5.292968 0.10937,9.179688 -4.94922,13.96875 c 0,0 -6.63672,3.800781 -6.60156,3.910156 0.0352,0.105469 0.86328,1.289062 0.86328,1.289062 z m 0,0"
     id="path103" />
  <path
     fill-rule="nonzero"
     fill="#000000"
     fill-opacity="0.4"
     d="m 323.64453,76.789062 0.67969,1.003907 6.33203,-3.910157 4.5,-12.929687 0.30469,-8.804687 -3.58594,-5.359376 -0.80859,0.484376 3.39062,5.304687 -0.41406,8.269531 -4.07031,12.140625 z m 0,0"
     id="path104" />
  <path
     fill-rule="nonzero"
     fill="#000000"
     fill-opacity="0.4"
     d="m 345.50391,62.496094 0.5,0.824218 5.9375,-2.976562 4.07031,-12.320312 -0.33985,-8.535157 -3.03125,-4.839843 -0.33984,0.25 2.72656,4.914062 -0.0391,8.5 -3.69141,11.277344 z m 0,0"
     id="path105" />
  <path
     fill="none"
     stroke-width="0.566929"
     stroke-linecap="butt"
     stroke-linejoin="miter"
     stroke="#000000"
     stroke-opacity="1"
     stroke-miterlimit="4"
     d="m 230.66406,123.21484 1.79297,0.14454 7.46094,-3.73047"
     id="path106" />
  <path
     fill="none"
     stroke-width="0.566929"
     stroke-linecap="butt"
     stroke-linejoin="miter"
     stroke="#000000"
     stroke-opacity="1"
     stroke-miterlimit="4"
     d="m 231.02344,111.16406 1.79297,0.0742 7.17187,-3.37109"
     id="path107" />
  <path
     fill="none"
     stroke-width="0.566929"
     stroke-linecap="butt"
     stroke-linejoin="miter"
     stroke="#000000"
     stroke-opacity="1"
     stroke-miterlimit="4"
     d="m 259.14062,106 1.9375,0.14453 7.7461,-4.66406"
     id="path108" />
  <path
     fill="none"
     stroke-width="0.566929"
     stroke-linecap="butt"
     stroke-linejoin="miter"
     stroke="#000000"
     stroke-opacity="1"
     stroke-miterlimit="4"
     d="m 259.5,95.242188 1.64844,-0.144532 7.96484,-4.375"
     id="path109" />
  <path
     fill="none"
     stroke-width="0.566929"
     stroke-linecap="butt"
     stroke-linejoin="miter"
     stroke="#000000"
     stroke-opacity="1"
     stroke-miterlimit="4"
     d="m 286.61328,79.675781 1.57813,-0.07031 7.3164,-3.804688"
     id="path110" />
  <path
     fill="none"
     stroke-width="0.566929"
     stroke-linecap="butt"
     stroke-linejoin="miter"
     stroke="#000000"
     stroke-opacity="1"
     stroke-miterlimit="4"
     d="m 295.00781,85.773438 -6.60156,4.160156 -1.57813,-0.214844"
     id="path111" />
  <path
     fill="none"
     stroke-width="0.566929"
     stroke-linecap="butt"
     stroke-linejoin="miter"
     stroke="#000000"
     stroke-opacity="1"
     stroke-miterlimit="4"
     d="m 311.35937,74.367188 1.79297,-0.07031 6.02735,-3.371094"
     id="path112" />
  <path
     fill="none"
     stroke-width="0.566929"
     stroke-linecap="butt"
     stroke-linejoin="miter"
     stroke="#000000"
     stroke-opacity="1"
     stroke-miterlimit="4"
     d="m 311.35937,65.042969 1.21875,0.07031 6.52735,-3.296875"
     id="path113" />
  <path
     fill="none"
     stroke-width="0.566929"
     stroke-linecap="butt"
     stroke-linejoin="miter"
     stroke="#000000"
     stroke-opacity="1"
     stroke-miterlimit="4"
     d="m 333.88281,60.882812 c 0,0 1.29297,0.285157 1.79297,0.214844 0.50391,-0.07031 6.09766,-3.800781 6.09766,-3.800781"
     id="path114" />
  <path
     fill="none"
     stroke-width="0.566929"
     stroke-linecap="butt"
     stroke-linejoin="miter"
     stroke="#000000"
     stroke-opacity="1"
     stroke-miterlimit="4"
     d="m 334.09766,52.632812 1.79296,-0.574218 5.45313,-3.082032"
     id="path115" />
  <path
     fill="none"
     stroke-width="0.566929"
     stroke-linecap="butt"
     stroke-linejoin="miter"
     stroke="#000000"
     stroke-opacity="1"
     stroke-miterlimit="4"
     d="m 354.75781,47.972656 1.79297,0.140625 v 0.07422 l 4.23047,-2.152344"
     id="path116" />
  <path
     fill="none"
     stroke-width="0.566929"
     stroke-linecap="butt"
     stroke-linejoin="miter"
     stroke="#000000"
     stroke-opacity="1"
     stroke-miterlimit="4"
     d="m 360.63672,38.214844 -4.48047,1.792968 -1.25781,-0.07031"
     id="path117" />
</svg>
