<?xml version="1.0" encoding="UTF-8" standalone="no"?>
<svg
   width="446.78125pt"
   height="142.26044pt"
   viewBox="0 0 446.78125 142.26044"
   version="1.1"
   id="svg104"
   sodipodi:docname="Figure 2.pdf"
   inkscape:export-filename="Figure 1.svg"
   inkscape:export-xdpi="240"
   inkscape:export-ydpi="240"
   xmlns:inkscape="http://www.inkscape.org/namespaces/inkscape"
   xmlns:sodipodi="http://sodipodi.sourceforge.net/DTD/sodipodi-0.dtd"
   xmlns="http://www.w3.org/2000/svg"
   xmlns:svg="http://www.w3.org/2000/svg">
  <sodipodi:namedview
     id="namedview104"
     pagecolor="#ffffff"
     bordercolor="#000000"
     borderopacity="0.25"
     inkscape:showpageshadow="2"
     inkscape:pageopacity="0.0"
     inkscape:pagecheckerboard="0"
     inkscape:deskcolor="#d1d1d1"
     inkscape:document-units="pt" />
  <defs
     id="defs4">
    <clipPath
       id="clip-0">
      <path
         clip-rule="nonzero"
         d="m 430,40 h 16.78125 v 1 H 430 Z m 0,0"
         id="path1" />
    </clipPath>
    <clipPath
       id="clip-1">
      <path
         clip-rule="nonzero"
         d="m 430,105 h 16.78125 v 2 H 430 Z m 0,0"
         id="path2" />
    </clipPath>
    <clipPath
       id="clip-2">
      <path
         clip-rule="nonzero"
         d="m 436,65 h 10.78125 V 82 H 436 Z m 0,0"
         id="path3" />
    </clipPath>
    <clipPath
       id="clip-3">
      <path
         clip-rule="nonzero"
         d="m 170,129 h 12 v 13.26172 h -12 z m 0,0"
         id="path4" />
    </clipPath>
  </defs>
  <path
     fill="none"
     stroke-width="1.56"
     stroke-linecap="round"
     stroke-linejoin="round"
     stroke="#000000"
     stroke-opacity="1"
     stroke-miterlimit="10"
     d="M 28.761719,0.78125 V 105.66016"
     id="path5" />
  <path
     fill="none"
     stroke-width="1.56"
     stroke-linecap="round"
     stroke-linejoin="round"
     stroke="#000000"
     stroke-opacity="1"
     stroke-miterlimit="10"
     d="M 28.761719,3.902344 H 322.40234"
     id="path6" />
  <path
     fill="none"
     stroke-width="1.56"
     stroke-linecap="round"
     stroke-linejoin="round"
     stroke="#000000"
     stroke-opacity="1"
     stroke-miterlimit="10"
     d="M 28.761719,102.54297 H 322.40234"
     id="path7" />
  <path
     fill="none"
     stroke-width="1.56"
     stroke-linecap="round"
     stroke-linejoin="round"
     stroke="#000000"
     stroke-opacity="1"
     stroke-miterlimit="10"
     d="M 28.761719,0.78125 H 322.40234"
     id="path8" />
  <path
     fill="none"
     stroke-width="1.56"
     stroke-linecap="round"
     stroke-linejoin="round"
     stroke="#000000"
     stroke-opacity="1"
     stroke-miterlimit="10"
     d="M 28.761719,105.66016 H 322.40234 V 0.78125"
     id="path9" />
  <path
     fill="none"
     stroke-width="1.56"
     stroke-linecap="round"
     stroke-linejoin="round"
     stroke="#000000"
     stroke-opacity="1"
     stroke-miterlimit="10"
     d="m 154.64062,53.160156 c 0,-23.160156 -18.77734,-41.9375 -41.9414,-41.9375 -23.160158,0 -41.937501,18.777344 -41.937501,41.9375 0,23.164063 18.777343,41.941406 41.937501,41.941406 23.16406,0 41.9414,-18.777343 41.9414,-41.941406"
     id="path10" />
  <path
     fill="none"
     stroke-width="1.56"
     stroke-linecap="round"
     stroke-linejoin="round"
     stroke="#000000"
     stroke-opacity="1"
     stroke-miterlimit="10"
     d="m 28.761719,53.222656 h 42"
     id="path11" />
  <path
     fill="none"
     stroke-width="1.56"
     stroke-linecap="round"
     stroke-linejoin="round"
     stroke="#000000"
     stroke-opacity="1"
     stroke-miterlimit="10"
     d="m 154.64062,53.222656 h 41.87891"
     id="path12" />
  <path
     fill="none"
     stroke-width="1.56"
     stroke-linecap="round"
     stroke-linejoin="round"
     stroke="#000000"
     stroke-opacity="1"
     stroke-miterlimit="10"
     d="m 280.51953,53.160156 c 0,-23.160156 -18.77734,-41.9375 -41.9375,-41.9375 -23.16406,0 -41.94141,18.777344 -41.94141,41.9375 0,23.164063 18.77735,41.941406 41.94141,41.941406 23.16016,0 41.9375,-18.777343 41.9375,-41.941406"
     id="path13" />
  <path
     fill="none"
     stroke-width="1.56"
     stroke-linecap="round"
     stroke-linejoin="round"
     stroke="#000000"
     stroke-opacity="1"
     stroke-miterlimit="10"
     d="m 280.40234,53.222656 h 42"
     id="path14" />
  <path
     fill="none"
     stroke-width="0.12"
     stroke-linecap="round"
     stroke-linejoin="round"
     stroke="#000000"
     stroke-opacity="1"
     stroke-miterlimit="10"
     d="M 87.921875,88.140625 92,89.941406"
     id="path15" />
  <path
     fill="none"
     stroke-width="0.12"
     stroke-linecap="round"
     stroke-linejoin="round"
     stroke="#000000"
     stroke-opacity="1"
     stroke-miterlimit="10"
     d="m 121.40234,11.222656 3.95704,1.800782"
     id="path16" />
  <path
     fill="none"
     stroke-width="0.685985"
     stroke-linecap="round"
     stroke-linejoin="round"
     stroke="#000000"
     stroke-opacity="1"
     stroke-miterlimit="10"
     d="M 99.441406,83.582031 107,66.300781"
     id="path17" />
  <path
     fill="none"
     stroke-width="0.685985"
     stroke-linecap="round"
     stroke-linejoin="round"
     stroke="#000000"
     stroke-opacity="1"
     stroke-miterlimit="10"
     d="m 125.96094,22.742188 -7.5586,17.398437"
     id="path18" />
  <path
     fill-rule="nonzero"
     fill="#000000"
     fill-opacity="1"
     stroke-width="0.12"
     stroke-linecap="round"
     stroke-linejoin="miter"
     stroke="#000000"
     stroke-opacity="1"
     stroke-miterlimit="10"
     d="m 98.121094,83.101562 2.640626,1.082032 -4.800782,7.4375 z m 0,0"
     id="path19" />
  <path
     fill-rule="nonzero"
     fill="#000000"
     fill-opacity="1"
     stroke-width="0.12"
     stroke-linecap="round"
     stroke-linejoin="miter"
     stroke="#000000"
     stroke-opacity="1"
     stroke-miterlimit="10"
     d="m 124.51953,22.140625 2.76172,1.203125 2.16016,-8.640625 z m 0,0"
     id="path20" />
  <path
     fill-rule="nonzero"
     fill="#000000"
     fill-opacity="1"
     d="m 102.88672,59.699219 v -0.34375 h 0.48437 c 0.53907,0 0.92579,-0.175781 1.15625,-0.53125 0.13282,-0.207031 0.20313,-0.671875 0.20313,-1.390625 v -8.28125 c 0,-0.789063 -0.0898,-1.289063 -0.26563,-1.5 -0.24218,-0.269532 -0.60546,-0.40625 -1.09375,-0.40625 h -0.48437 v -0.359375 h 5.21875 c 1.91406,0 3.36719,0.21875 4.35937,0.65625 1,0.4375 1.80079,1.164062 2.40625,2.171875 0.61329,1.011718 0.92188,2.183594 0.92188,3.515625 0,1.78125 -0.54297,3.273437 -1.625,4.46875 -1.21875,1.335937 -3.07422,2 -5.5625,2 z m 3.65625,-0.921875 c 0.80078,0.179687 1.47266,0.265625 2.01562,0.265625 1.45704,0 2.66407,-0.507813 3.625,-1.53125 0.96875,-1.03125 1.45313,-2.425781 1.45313,-4.1875 0,-1.769531 -0.48438,-3.164063 -1.45313,-4.1875 -0.96093,-1.019531 -2.19531,-1.53125 -3.70312,-1.53125 -0.5625,0 -1.21094,0.09375 -1.9375,0.28125 z m 0,0"
     id="path21" />
  <path
     fill-rule="nonzero"
     fill="#000000"
     fill-opacity="1"
     d="m 116.48438,55.261719 c 0,-1.019531 0.15625,-1.898438 0.46875,-2.640625 0.3125,-0.738282 0.72265,-1.285156 1.23437,-1.640625 0.39453,-0.289063 0.80078,-0.4375 1.21875,-0.4375 0.6875,0 1.30469,0.351562 1.85938,1.046875 0.6875,0.875 1.03125,2.054687 1.03125,3.53125 0,1.042968 -0.15235,1.929687 -0.45313,2.65625 -0.30469,0.730468 -0.6875,1.261718 -1.15625,1.59375 -0.46094,0.324218 -0.90625,0.484375 -1.34375,0.484375 -0.85547,0 -1.57031,-0.503907 -2.14062,-1.515625 -0.48047,-0.84375 -0.71875,-1.867188 -0.71875,-3.078125 z m 1.29687,0.171875 c 0,1.230468 0.15625,2.234375 0.46875,3.015625 0.25,0.65625 0.61719,0.984375 1.10938,0.984375 0.23828,0 0.48437,-0.101563 0.73437,-0.3125 0.25781,-0.21875 0.45703,-0.578125 0.59375,-1.078125 0.20703,-0.757813 0.3125,-1.828125 0.3125,-3.203125 0,-1.019532 -0.10937,-1.875 -0.32812,-2.5625 -0.15625,-0.507813 -0.35938,-0.867188 -0.60938,-1.078125 -0.17969,-0.144531 -0.39844,-0.21875 -0.65625,-0.21875 -0.30469,0 -0.57031,0.136719 -0.79687,0.40625 -0.32422,0.367187 -0.54297,0.945312 -0.65625,1.734375 -0.11719,0.78125 -0.17188,1.554687 -0.17188,2.3125 z m 0,0"
     id="path22" />
  <path
     fill="none"
     stroke-width="0.685985"
     stroke-linecap="round"
     stroke-linejoin="round"
     stroke="#000000"
     stroke-opacity="1"
     stroke-miterlimit="10"
     d="m 112.64063,103.86328 v 13.07813"
     id="path23" />
  <path
     fill="none"
     stroke-width="0.685985"
     stroke-linecap="round"
     stroke-linejoin="round"
     stroke="#000000"
     stroke-opacity="1"
     stroke-miterlimit="10"
     d="m 238.51953,103.86328 v 13.07813"
     id="path24" />
  <path
     fill="none"
     stroke-width="0.685985"
     stroke-linecap="round"
     stroke-linejoin="round"
     stroke="#000000"
     stroke-opacity="1"
     stroke-miterlimit="10"
     d="m 121.40234,112.62109 h 41.63672"
     id="path25" />
  <path
     fill="none"
     stroke-width="0.685985"
     stroke-linecap="round"
     stroke-linejoin="round"
     stroke="#000000"
     stroke-opacity="1"
     stroke-miterlimit="10"
     d="M 229.76172,112.62109 H 185.12109"
     id="path26" />
  <path
     fill-rule="nonzero"
     fill="#000000"
     fill-opacity="1"
     d="m 169.625,109.38281 2.65625,-1.07812 h 0.35937 v 2.03125 c 0.44532,-0.75781 0.89454,-1.28906 1.34375,-1.59375 0.45704,-0.3125 0.92969,-0.46875 1.42188,-0.46875 0.875,0 1.59766,0.33984 2.17187,1.01562 0.71875,0.83594 1.07813,1.91797 1.07813,3.25 0,1.49219 -0.43359,2.72657 -1.29688,3.70313 -0.69921,0.80469 -1.58593,1.20312 -2.65625,1.20312 -0.46875,0 -0.87109,-0.0703 -1.20312,-0.20312 -0.26172,-0.0937 -0.54688,-0.28125 -0.85938,-0.5625 v 2.64062 c 0,0.58203 0.0352,0.95313 0.10938,1.10938 0.0703,0.16406 0.19531,0.29687 0.375,0.39062 0.1875,0.0937 0.51562,0.14063 0.98437,0.14063 v 0.35937 h -4.53125 v -0.35937 h 0.23438 c 0.34375,0.008 0.64062,-0.0547 0.89062,-0.1875 0.11329,-0.0742 0.20313,-0.1875 0.26563,-0.34375 0.0703,-0.15625 0.10937,-0.54688 0.10937,-1.17188 v -8.1875 c 0,-0.55078 -0.0273,-0.89843 -0.0781,-1.04687 -0.0547,-0.15625 -0.13672,-0.26953 -0.25,-0.34375 -0.10547,-0.082 -0.25,-0.125 -0.4375,-0.125 -0.15625,0 -0.35156,0.0469 -0.57813,0.14062 z m 3.01562,1.5 v 3.23438 c 0,0.69922 0.0312,1.15625 0.0937,1.375 0.082,0.36719 0.29688,0.6875 0.64063,0.96875 0.34375,0.28125 0.77344,0.42187 1.29687,0.42187 0.63282,0 1.14454,-0.24218 1.53125,-0.73437 0.50782,-0.64453 0.76563,-1.55078 0.76563,-2.71875 0,-1.32031 -0.29297,-2.33594 -0.875,-3.04688 -0.39844,-0.48828 -0.87109,-0.73437 -1.42188,-0.73437 -0.30468,0 -0.60546,0.0742 -0.90625,0.21875 -0.23046,0.11719 -0.60546,0.45312 -1.125,1.01562 z m 0,0"
     id="path27" />
  <path
     fill-rule="nonzero"
     fill="#000000"
     fill-opacity="1"
     stroke-width="0.12"
     stroke-linecap="round"
     stroke-linejoin="miter"
     stroke="#000000"
     stroke-opacity="1"
     stroke-miterlimit="10"
     d="m 121.40234,111.18359 v 2.87891 l -8.76171,-1.44141 z m 0,0"
     id="path28" />
  <path
     fill-rule="nonzero"
     fill="#000000"
     fill-opacity="1"
     stroke-width="0.12"
     stroke-linecap="round"
     stroke-linejoin="miter"
     stroke="#000000"
     stroke-opacity="1"
     stroke-miterlimit="10"
     d="m 229.76172,111.18359 v 2.87891 l 8.75781,-1.44141 z m 0,0"
     id="path29" />
  <path
     fill="none"
     stroke-width="0.685985"
     stroke-linecap="round"
     stroke-linejoin="round"
     stroke="#000000"
     stroke-opacity="1"
     stroke-miterlimit="10"
     d="M 20.121094,105.66016 H 3.082031"
     id="path30" />
  <path
     fill="none"
     stroke-width="0.685985"
     stroke-linecap="round"
     stroke-linejoin="round"
     stroke="#000000"
     stroke-opacity="1"
     stroke-miterlimit="10"
     d="M 20.121094,0.78125 H 3.082031"
     id="path31" />
  <path
     fill="none"
     stroke-width="0.685985"
     stroke-linecap="round"
     stroke-linejoin="round"
     stroke="#000000"
     stroke-opacity="1"
     stroke-miterlimit="10"
     d="M 7.402344,96.902344 V 66.542969"
     id="path32" />
  <path
     fill="none"
     stroke-width="0.685985"
     stroke-linecap="round"
     stroke-linejoin="round"
     stroke="#000000"
     stroke-opacity="1"
     stroke-miterlimit="10"
     d="M 7.402344,9.542969 V 39.78125"
     id="path33" />
  <path
     fill-rule="nonzero"
     fill="#000000"
     fill-opacity="1"
     stroke-width="0.12"
     stroke-linecap="round"
     stroke-linejoin="miter"
     stroke="#000000"
     stroke-opacity="1"
     stroke-miterlimit="10"
     d="m 5.960938,96.902344 h 3 l -1.558594,8.757816 z m 0,0"
     id="path34" />
  <path
     fill-rule="nonzero"
     fill="#000000"
     fill-opacity="1"
     stroke-width="0.12"
     stroke-linecap="round"
     stroke-linejoin="miter"
     stroke="#000000"
     stroke-opacity="1"
     stroke-miterlimit="10"
     d="m 5.960938,9.542969 h 3 L 7.402344,0.78125 Z m 0,0"
     id="path35" />
  <path
     fill-rule="nonzero"
     fill="#000000"
     fill-opacity="1"
     d="m 6.078125,58.851562 c -0.429687,0.4375 -0.84375,0.757813 -1.25,0.953126 -0.398437,0.1875 -0.828125,0.28125 -1.296875,0.28125 -0.9375,0 -1.761719,-0.394532 -2.46875,-1.1875 C 0.351562,58.109375 0,57.09375 0,55.851562 c 0,-1.238281 0.390625,-2.375 1.171875,-3.40625 0.78125,-1.03125 1.785156,-1.546874 3.015625,-1.546874 0.757812,0 1.390625,0.246093 1.890625,0.734374 v -1.59375 C 6.078125,49.050781 6.050781,48.441406 6,48.210938 5.957031,47.984375 5.882812,47.832031 5.78125,47.757812 c -0.105469,-0.08203 -0.230469,-0.125 -0.375,-0.125 -0.167969,0 -0.386719,0.04688 -0.65625,0.140626 l -0.125,-0.328126 2.578125,-1.0625 h 0.4375 v 10.015626 c 0,1.011718 0.019531,1.632812 0.0625,1.859374 0.050781,0.21875 0.128906,0.375 0.234375,0.46875 0.101562,0.08594 0.222656,0.125 0.359375,0.125 0.164063,0 0.390625,-0.05469 0.671875,-0.171874 l 0.109375,0.34375 -2.5625,1.0625 h -0.4375 z m 0,-0.671874 v -4.453126 c -0.042969,-0.425781 -0.15625,-0.816406 -0.34375,-1.171874 -0.1875,-0.351563 -0.4375,-0.617188 -0.75,-0.796876 -0.3125,-0.175781 -0.617187,-0.265624 -0.90625,-0.265624 -0.5625,0 -1.058594,0.25 -1.484375,0.75 -0.574219,0.648437 -0.859375,1.601562 -0.859375,2.859374 0,1.273438 0.273437,2.246094 0.828125,2.921876 0.550781,0.679687 1.164062,1.015624 1.84375,1.015624 0.570312,0 1.128906,-0.285156 1.671875,-0.859374 z m 0,0"
     id="path36" />
  <path
     fill-rule="nonzero"
     fill="#000000"
     fill-opacity="1"
     d="m 10.644531,57.617188 c -0.375,-0.1875 -0.664062,-0.441407 -0.859375,-0.765626 -0.199218,-0.320312 -0.296875,-0.679687 -0.296875,-1.078124 0,-0.59375 0.222657,-1.101563 0.671875,-1.53125 0.457032,-0.4375 1.039063,-0.65625 1.75,-0.65625 0.570313,0 1.070313,0.140624 1.5,0.421874 h 1.28125 c 0.1875,0 0.296875,0.0078 0.328125,0.01563 0.03125,0.01172 0.05078,0.03125 0.0625,0.0625 0.03125,0.03125 0.04687,0.101562 0.04687,0.203124 0,0.117188 -0.01172,0.195313 -0.03125,0.234376 -0.02344,0.02344 -0.04687,0.04297 -0.07813,0.0625 -0.03125,0.01172 -0.140625,0.01562 -0.328125,0.01562 h -0.78125 c 0.238282,0.3125 0.359375,0.71875 0.359375,1.21875 0,0.5625 -0.21875,1.046876 -0.65625,1.453126 -0.429687,0.398437 -1.007812,0.59375 -1.734375,0.59375 -0.292968,0 -0.59375,-0.03906 -0.90625,-0.125 -0.199218,0.167968 -0.335937,0.3125 -0.40625,0.4375 -0.0625,0.125 -0.09375,0.230468 -0.09375,0.3125 0,0.08594 0.03516,0.164062 0.109375,0.234374 0.07031,0.0625 0.210938,0.109376 0.421875,0.140626 0.125,0.02344 0.429688,0.03906 0.921875,0.04687 0.914063,0.02344 1.503907,0.05469 1.765625,0.09375 0.414063,0.05469 0.742188,0.203126 0.984375,0.453126 0.25,0.25 0.375,0.554687 0.375,0.921874 0,0.488282 -0.234375,0.953126 -0.703125,1.390626 -0.6875,0.644531 -1.585937,0.96875 -2.6875,0.96875 -0.855468,0 -1.574218,-0.195313 -2.15625,-0.578126 -0.335937,-0.21875 -0.5,-0.449218 -0.5,-0.6875 0,-0.105468 0.019532,-0.210937 0.0625,-0.3125 0.082032,-0.167968 0.238282,-0.398437 0.46875,-0.6875 0.03125,-0.03125 0.253906,-0.265624 0.671875,-0.703124 -0.230469,-0.144532 -0.390625,-0.269532 -0.484375,-0.375 -0.09375,-0.101563 -0.140625,-0.222657 -0.140625,-0.359376 0,-0.15625 0.0625,-0.335937 0.1875,-0.546874 0.125,-0.207032 0.414063,-0.5 0.875,-0.875 z m 1.140625,-3.71875 c -0.324218,0 -0.59375,0.132812 -0.8125,0.390624 -0.21875,0.261719 -0.328125,0.664063 -0.328125,1.203126 0,0.699218 0.148438,1.234374 0.453125,1.609374 0.226563,0.292969 0.515625,0.4375 0.859375,0.4375 0.34375,0 0.617188,-0.125 0.828125,-0.375 0.21875,-0.25 0.328125,-0.644531 0.328125,-1.1875 0,-0.695312 -0.152343,-1.242187 -0.453125,-1.640624 -0.230468,-0.289063 -0.523437,-0.4375 -0.875,-0.4375 z m -1.203125,5.921874 c -0.210937,0.226563 -0.371093,0.4375 -0.484375,0.625 -0.105468,0.195313 -0.15625,0.378907 -0.15625,0.546876 0,0.207031 0.128906,0.390624 0.390625,0.546874 0.4375,0.269532 1.070313,0.40625 1.90625,0.40625 0.789063,0 1.375,-0.140624 1.75,-0.421874 0.382813,-0.273438 0.578125,-0.570313 0.578125,-0.890626 0,-0.230468 -0.117187,-0.390624 -0.34375,-0.484374 -0.230468,-0.105469 -0.683594,-0.164063 -1.359375,-0.171876 -0.992187,-0.03125 -1.75,-0.08594 -2.28125,-0.15625 z m 0,0"
     id="path37" />
  <path
     fill="none"
     stroke-width="1.56"
     stroke-linecap="round"
     stroke-linejoin="round"
     stroke="#000000"
     stroke-opacity="1"
     stroke-miterlimit="10"
     d="M 356.48047,4.980469 H 340.87891 V 0.78125"
     id="path38" />
  <path
     fill="none"
     stroke-width="1.56"
     stroke-linecap="round"
     stroke-linejoin="round"
     stroke="#000000"
     stroke-opacity="1"
     stroke-miterlimit="10"
     d="m 356.48047,4.980469 v 28.320312 h 1.67969"
     id="path39" />
  <path
     fill="none"
     stroke-width="1.56"
     stroke-linecap="round"
     stroke-linejoin="round"
     stroke="#000000"
     stroke-opacity="1"
     stroke-miterlimit="10"
     d="m 359.83984,4.980469 h 15.60157 V 0.78125"
     id="path40" />
  <path
     fill="none"
     stroke-width="1.56"
     stroke-linecap="round"
     stroke-linejoin="round"
     stroke="#000000"
     stroke-opacity="1"
     stroke-miterlimit="10"
     d="m 359.83984,4.980469 v 28.320312 h -1.67968"
     id="path41" />
  <path
     fill="none"
     stroke-width="1.56"
     stroke-linecap="round"
     stroke-linejoin="round"
     stroke="#000000"
     stroke-opacity="1"
     stroke-miterlimit="10"
     d="m 340.87891,0.78125 h 34.5625"
     id="path42" />
  <path
     fill="none"
     stroke-width="1.56"
     stroke-linecap="round"
     stroke-linejoin="round"
     stroke="#000000"
     stroke-opacity="1"
     stroke-miterlimit="10"
     d="m 356.48047,101.46094 h -15.60156 v 4.19922"
     id="path43" />
  <path
     fill="none"
     stroke-width="1.56"
     stroke-linecap="round"
     stroke-linejoin="round"
     stroke="#000000"
     stroke-opacity="1"
     stroke-miterlimit="10"
     d="M 356.48047,101.46094 V 73.023438 h 1.67969"
     id="path44" />
  <path
     fill="none"
     stroke-width="1.56"
     stroke-linecap="round"
     stroke-linejoin="round"
     stroke="#000000"
     stroke-opacity="1"
     stroke-miterlimit="10"
     d="m 359.83984,101.46094 h 15.60157 v 4.19922"
     id="path45" />
  <path
     fill="none"
     stroke-width="1.56"
     stroke-linecap="round"
     stroke-linejoin="round"
     stroke="#000000"
     stroke-opacity="1"
     stroke-miterlimit="10"
     d="M 359.83984,101.46094 V 73.023438 h -1.67968"
     id="path46" />
  <path
     fill="none"
     stroke-width="1.56"
     stroke-linecap="round"
     stroke-linejoin="round"
     stroke="#000000"
     stroke-opacity="1"
     stroke-miterlimit="10"
     d="m 340.87891,105.66016 h 34.5625"
     id="path47" />
  <path
     fill="none"
     stroke-width="1.56"
     stroke-linecap="round"
     stroke-linejoin="round"
     stroke="#000000"
     stroke-opacity="1"
     stroke-miterlimit="10"
     d="m 403.51953,73.023438 v 28.437502 h -15.59766 v 4.19922"
     id="path48" />
  <path
     fill="none"
     stroke-width="1.56"
     stroke-linecap="round"
     stroke-linejoin="round"
     stroke="#000000"
     stroke-opacity="1"
     stroke-miterlimit="10"
     d="m 406.87891,73.023438 v 28.437502 h 15.60156 v 4.19922 h -34.5586"
     id="path49" />
  <path
     fill="none"
     stroke-width="1.56"
     stroke-linecap="round"
     stroke-linejoin="round"
     stroke="#000000"
     stroke-opacity="1"
     stroke-miterlimit="10"
     d="M 403.51953,73.023438 V 44.703125 H 387.92187 V 40.5"
     id="path50" />
  <path
     fill="none"
     stroke-width="1.56"
     stroke-linecap="round"
     stroke-linejoin="round"
     stroke="#000000"
     stroke-opacity="1"
     stroke-miterlimit="10"
     d="M 406.87891,73.023438 V 44.703125 h 15.60156 V 40.5 h -34.5586"
     id="path51" />
  <g
     clip-path="url(#clip-0)"
     id="g52">
    <path
       fill="none"
       stroke-width="0.685985"
       stroke-linecap="round"
       stroke-linejoin="round"
       stroke="#000000"
       stroke-opacity="1"
       stroke-miterlimit="10"
       d="m 431.24219,40.5 h 14.63672"
       id="path52" />
  </g>
  <g
     clip-path="url(#clip-1)"
     id="g53">
    <path
       fill="none"
       stroke-width="0.685985"
       stroke-linecap="round"
       stroke-linejoin="round"
       stroke="#000000"
       stroke-opacity="1"
       stroke-miterlimit="10"
       d="m 431.24219,105.66016 h 14.63672"
       id="path53" />
  </g>
  <path
     fill="none"
     stroke-width="0.685985"
     stroke-linecap="round"
     stroke-linejoin="round"
     stroke="#000000"
     stroke-opacity="1"
     stroke-miterlimit="10"
     d="M 441.44141,49.261719 V 58.5"
     id="path54" />
  <path
     fill="none"
     stroke-width="0.685985"
     stroke-linecap="round"
     stroke-linejoin="round"
     stroke="#000000"
     stroke-opacity="1"
     stroke-miterlimit="10"
     d="M 441.44141,96.902344 V 87.660156"
     id="path55" />
  <g
     clip-path="url(#clip-2)"
     id="g56">
    <path
       fill-rule="nonzero"
       fill="#000000"
       fill-opacity="1"
       d="m 443.28125,79.558594 c -0.5,0.523437 -0.98438,0.898437 -1.45313,1.125 -0.46875,0.21875 -0.97656,0.328125 -1.51562,0.328125 -1.10547,0 -2.07031,-0.457031 -2.89063,-1.375 -0.82421,-0.925781 -1.23437,-2.113281 -1.23437,-3.5625 0,-1.445313 0.45312,-2.769531 1.35937,-3.96875 0.91407,-1.207031 2.09375,-1.8125 3.53125,-1.8125 0.88282,0 1.61719,0.28125 2.20313,0.84375 v -1.859375 c 0,-1.15625 -0.0312,-1.863282 -0.0937,-2.125 -0.0547,-0.269532 -0.14063,-0.453125 -0.26563,-0.546875 -0.11718,-0.09375 -0.25781,-0.140625 -0.42187,-0.140625 -0.19922,0 -0.45313,0.05859 -0.76563,0.171875 l -0.14062,-0.375 3,-1.234375 h 0.5 v 11.671875 c 0,1.179687 0.0234,1.902343 0.0781,2.171875 0.0625,0.261718 0.14844,0.445312 0.26563,0.546875 0.125,0.09375 0.26562,0.140625 0.42187,0.140625 0.20704,0 0.47266,-0.0625 0.79688,-0.1875 l 0.125,0.390625 -3,1.25 h -0.5 z m 0,-0.765625 v -5.203125 c -0.0547,-0.5 -0.1875,-0.953125 -0.40625,-1.359375 -0.21875,-0.414063 -0.51172,-0.726563 -0.875,-0.9375 -0.36719,-0.207031 -0.71875,-0.3125 -1.0625,-0.3125 -0.64844,0 -1.22656,0.289062 -1.73438,0.859375 -0.66796,0.773437 -1,1.890625 -1,3.359375 0,1.480469 0.32032,2.617187 0.96875,3.40625 0.64454,0.792969 1.36329,1.1875 2.15625,1.1875 0.67579,0 1.32813,-0.332031 1.95313,-1 z m 0,0"
       id="path56" />
  </g>
  <path
     fill-rule="nonzero"
     fill="#000000"
     fill-opacity="1"
     stroke-width="0.12"
     stroke-linecap="round"
     stroke-linejoin="miter"
     stroke="#000000"
     stroke-opacity="1"
     stroke-miterlimit="10"
     d="m 440,49.261719 h 3 L 441.44141,40.5 Z m 0,0"
     id="path57" />
  <path
     fill-rule="nonzero"
     fill="#000000"
     fill-opacity="1"
     stroke-width="0.12"
     stroke-linecap="round"
     stroke-linejoin="miter"
     stroke="#000000"
     stroke-opacity="1"
     stroke-miterlimit="10"
     d="m 440,96.902344 h 3 l -1.55859,8.757816 z m 0,0"
     id="path58" />
  <path
     fill="none"
     stroke-width="0.685985"
     stroke-linecap="round"
     stroke-linejoin="round"
     stroke="#000000"
     stroke-opacity="1"
     stroke-miterlimit="10"
     d="m 28.761719,114.30078 v 25.80078"
     id="path59" />
  <path
     fill="none"
     stroke-width="0.685985"
     stroke-linecap="round"
     stroke-linejoin="round"
     stroke="#000000"
     stroke-opacity="1"
     stroke-miterlimit="10"
     d="m 322.40234,114.30078 v 25.80078"
     id="path60" />
  <path
     fill="none"
     stroke-width="0.685985"
     stroke-linecap="round"
     stroke-linejoin="round"
     stroke="#000000"
     stroke-opacity="1"
     stroke-miterlimit="10"
     d="M 37.519531,135.78125 H 163.51953"
     id="path61" />
  <path
     fill="none"
     stroke-width="0.685985"
     stroke-linecap="round"
     stroke-linejoin="round"
     stroke="#000000"
     stroke-opacity="1"
     stroke-miterlimit="10"
     d="m 313.64062,135.78125 h -126"
     id="path62" />
  <path
     fill-rule="nonzero"
     fill="#000000"
     fill-opacity="1"
     stroke-width="0.12"
     stroke-linecap="round"
     stroke-linejoin="miter"
     stroke="#000000"
     stroke-opacity="1"
     stroke-miterlimit="10"
     d="m 37.519531,134.34375 v 2.87891 l -8.757812,-1.44141 z m 0,0"
     id="path63" />
  <path
     fill-rule="nonzero"
     fill="#000000"
     fill-opacity="1"
     stroke-width="0.12"
     stroke-linecap="round"
     stroke-linejoin="miter"
     stroke="#000000"
     stroke-opacity="1"
     stroke-miterlimit="10"
     d="m 313.64062,134.34375 v 2.87891 l 8.76172,-1.44141 z m 0,0"
     id="path64" />
  <g
     clip-path="url(#clip-3)"
     id="g65">
    <path
       fill-rule="nonzero"
       fill="#000000"
       fill-opacity="1"
       d="m 180.73437,138.71484 0.3125,0.0781 -1.09375,3.46875 h -9.92187 v -0.34375 h 0.48437 c 0.53907,0 0.92579,-0.17578 1.15625,-0.53125 0.13282,-0.20703 0.20313,-0.67578 0.20313,-1.40625 v -8.26563 c 0,-0.78906 -0.0898,-1.28906 -0.26563,-1.5 -0.25,-0.26953 -0.61718,-0.40625 -1.09375,-0.40625 h -0.48437 v -0.35937 h 5.79687 v 0.35937 c -0.67968,-0.008 -1.15625,0.0547 -1.4375,0.1875 -0.27343,0.125 -0.46093,0.29297 -0.5625,0.5 -0.0937,0.19922 -0.14062,0.67969 -0.14062,1.4375 v 8.04688 c 0,0.52344 0.0469,0.88281 0.14062,1.07812 0.082,0.13672 0.20313,0.23438 0.35938,0.29688 0.15625,0.0625 0.64453,0.0937 1.46875,0.0937 h 0.9375 c 0.97656,0 1.66406,-0.0703 2.0625,-0.21875 0.39453,-0.14453 0.75391,-0.39844 1.07812,-0.76563 0.33204,-0.375 0.66407,-0.95703 1,-1.75 z m 0,0"
       id="path65" />
  </g>
  <path
     fill="none"
     stroke-width="0.685985"
     stroke-linecap="round"
     stroke-linejoin="round"
     stroke="#000000"
     stroke-opacity="1"
     stroke-miterlimit="10"
     d="m 387.92187,110.22266 v 8.8789"
     id="path66" />
  <path
     fill="none"
     stroke-width="0.685985"
     stroke-linecap="round"
     stroke-linejoin="round"
     stroke="#000000"
     stroke-opacity="1"
     stroke-miterlimit="10"
     d="m 422.48047,110.22266 v 8.8789"
     id="path67" />
  <path
     fill="none"
     stroke-width="0.685985"
     stroke-linecap="round"
     stroke-linejoin="round"
     stroke="#000000"
     stroke-opacity="1"
     stroke-miterlimit="10"
     d="m 396.55859,114.78125 h 17.16016"
     id="path68" />
  <path
     fill-rule="nonzero"
     fill="#000000"
     fill-opacity="1"
     stroke-width="0.12"
     stroke-linecap="round"
     stroke-linejoin="miter"
     stroke="#000000"
     stroke-opacity="1"
     stroke-miterlimit="10"
     d="m 396.55859,113.22266 v 3 l -8.63672,-1.44141 z m 0,0"
     id="path69" />
  <path
     fill-rule="nonzero"
     fill="#000000"
     fill-opacity="1"
     stroke-width="0.12"
     stroke-linecap="round"
     stroke-linejoin="miter"
     stroke="#000000"
     stroke-opacity="1"
     stroke-miterlimit="10"
     d="m 413.71875,113.22266 v 3 l 8.76172,-1.44141 z m 0,0"
     id="path70" />
  <path
     fill-rule="nonzero"
     fill="#000000"
     fill-opacity="1"
     d="m 400.75,128.62109 c 0.97656,-1.35156 2.03516,-2.03125 3.17187,-2.03125 1.03125,0 1.92969,0.44532 2.70313,1.32813 0.76953,0.88672 1.15625,2.09375 1.15625,3.625 0,1.79297 -0.59375,3.23437 -1.78125,4.32812 -1.02344,0.94922 -2.16406,1.42188 -3.42188,1.42188 -0.58593,0 -1.17968,-0.10547 -1.78125,-0.3125 -0.60546,-0.21875 -1.22656,-0.53906 -1.85937,-0.96875 v -10.46875 c 0,-1.14453 -0.0312,-1.84766 -0.0937,-2.10938 -0.0547,-0.26953 -0.13672,-0.45312 -0.25,-0.54687 -0.11719,-0.0937 -0.26172,-0.14063 -0.4375,-0.14063 -0.21094,0 -0.46875,0.0586 -0.78125,0.17188 l -0.15625,-0.375 3.04687,-1.23438 H 400.75 Z m 0,0.70313 v 6.04687 c 0.375,0.36719 0.75781,0.64063 1.15625,0.82813 0.40625,0.1875 0.81641,0.28125 1.23437,0.28125 0.67579,0 1.30079,-0.36328 1.875,-1.09375 0.57032,-0.73828 0.85938,-1.8125 0.85938,-3.21875 0,-1.28906 -0.28906,-2.28125 -0.85938,-2.96875 -0.57421,-0.69531 -1.23046,-1.04688 -1.96875,-1.04688 -0.38671,0 -0.77734,0.10157 -1.17187,0.29688 -0.29297,0.14844 -0.66797,0.4375 -1.125,0.875 z m 0,0"
     id="path71" />
  <path
     fill-rule="nonzero"
     fill="#000000"
     fill-opacity="1"
     d="m 411.21094,130.46484 v 4.65625 c 0,0.65625 0.0703,1.07422 0.21875,1.25 0.1875,0.21875 0.4414,0.32813 0.76562,0.32813 h 0.64063 v 0.28125 h -4.21875 v -0.28125 h 0.3125 c 0.20703,0 0.39453,-0.0508 0.5625,-0.15625 0.17578,-0.10156 0.29687,-0.23828 0.35937,-0.40625 0.0625,-0.17578 0.0937,-0.51563 0.0937,-1.01563 v -4.65625 h -1.375 v -0.54687 h 1.375 v -0.46875 c 0,-0.69531 0.10938,-1.28906 0.32813,-1.78125 0.22656,-0.48828 0.57812,-0.88281 1.04687,-1.1875 0.46875,-0.30078 0.98828,-0.45313 1.5625,-0.45313 0.53906,0 1.03906,0.17969 1.5,0.53125 0.28906,0.23047 0.4375,0.48438 0.4375,0.76563 0,0.15625 -0.0703,0.30469 -0.20312,0.4375 -0.125,0.13672 -0.26563,0.20312 -0.42188,0.20312 -0.11719,0 -0.24219,-0.0391 -0.375,-0.125 -0.13672,-0.082 -0.29687,-0.26562 -0.48437,-0.54687 -0.1875,-0.28125 -0.35938,-0.46875 -0.51563,-0.5625 -0.16797,-0.0937 -0.35156,-0.14063 -0.54687,-0.14063 -0.23047,0 -0.42969,0.0625 -0.59375,0.1875 -0.16797,0.125 -0.28907,0.32422 -0.35938,0.59375 -0.0742,0.26172 -0.10937,0.9375 -0.10937,2.03125 v 0.51563 h 1.82812 v 0.54687 z m 0,0"
     id="path72" />
  <path
     fill="none"
     stroke-width="0.40252"
     stroke-linecap="round"
     stroke-linejoin="round"
     stroke="#000000"
     stroke-opacity="1"
     stroke-miterlimit="10"
     d="M 358.28125,89.460938 359.35937,88.5 l 0.60157,-0.359375 0.59765,-0.480469 0.24219,-0.238281 0.35938,-0.238281 0.24218,-0.121094 0.23828,-0.242188 0.35938,-0.117187 0.24219,-0.242187 0.35937,-0.117188 0.23828,-0.242188 0.24219,-0.121093 0.35938,-0.117188 0.23828,-0.121093 0.35937,-0.121094 0.24219,-0.121094 0.35937,-0.117188 0.23829,-0.121093 h 0.36328 l 0.23828,-0.121094 h 1.92187 l 0.35938,0.121094 h 0.35937 l 0.23828,0.121093 0.35938,0.117188 h 0.36328 l 0.59766,0.242188 0.72265,0.121093 0.71875,0.238281 h 0.23828 l 0.35938,0.121094 0.36328,0.121094 h 0.59766 l 0.35937,0.117188 h 1.32031 l 0.24219,-0.117188 h 0.35938 l 0.35937,-0.121094 0.23828,-0.121094 0.36328,-0.121093 0.23829,-0.117188 0.71875,-0.242187 1.20312,-0.71875"
     id="path73" />
  <path
     fill="none"
     stroke-width="0.40252"
     stroke-linecap="round"
     stroke-linejoin="round"
     stroke="#000000"
     stroke-opacity="1"
     stroke-miterlimit="10"
     d="M 405.19922,89.34375 404,88.382812 l -0.48047,-0.480468 -0.59766,-0.359375 -0.36328,-0.242188 -0.23828,-0.238281 -0.23828,-0.242188 -0.36328,-0.117187 -0.23828,-0.242187 -0.35938,-0.117188 -0.24218,-0.242188 -0.23829,-0.121093 -0.35937,-0.117188 -0.24219,-0.121093 L 399.67969,85.5 399.44141,85.382812 h -0.35938 l -0.24219,-0.121093 -0.35937,-0.121094 -0.23828,-0.117187 h -0.96094 l -0.35938,-0.121094 -0.24218,0.121094 h -0.71875 l -0.24219,0.117187 h -0.35938 L 395,85.261719 h -0.35938 l -0.23828,0.121093 -0.72265,0.117188 -0.59766,0.242188 -0.72266,0.121093 -0.35937,0.117188 -0.23828,0.121093 h -0.35938 l -0.36328,0.121094 h -0.59765 l -0.35938,0.121094 h -0.36328 l -0.35938,-0.121094 h -0.59765 l -0.24219,-0.121094 -0.35937,-0.121093 h -0.35938 l -0.24219,-0.117188 -0.35937,-0.121093 -0.23828,-0.121094 -0.35938,-0.238282 L 386,85.140625 385.40234,84.78125"
     id="path74" />
  <path
     fill-rule="nonzero"
     fill="#000000"
     fill-opacity="1"
     d="m 377.98828,68.871094 v 3.085937 h 2.17969 v 0.71875 h -2.17969 v 6.066407 c 0,0.609374 0.0859,1.015624 0.25391,1.226562 0.17187,0.210938 0.39062,0.316406 0.67578,0.316406 0.22265,0 0.44531,-0.07031 0.65625,-0.210937 0.21094,-0.136719 0.37109,-0.34375 0.48828,-0.613281 h 0.39844 c -0.24219,0.664062 -0.57813,1.164062 -1.01172,1.5 -0.44141,0.339843 -0.89063,0.507812 -1.35547,0.507812 -0.30859,0 -0.62109,-0.08594 -0.92969,-0.253906 -0.29297,-0.167969 -0.51562,-0.410156 -0.65234,-0.738282 -0.14453,-0.324218 -0.21094,-0.824218 -0.21094,-1.5 v -6.300781 h -1.48047 v -0.335937 c 0.36328,-0.152344 0.7461,-0.40625 1.14063,-0.761719 0.39062,-0.363281 0.74609,-0.792969 1.05859,-1.289063 0.15234,-0.253906 0.36719,-0.722656 0.65234,-1.417968 z m 0,0"
     id="path75" />
  <path
     fill-rule="nonzero"
     fill="#000000"
     fill-opacity="1"
     d="m 380.375,76.230469 h 2.76562 v 0.253906 c -0.25,0.01563 -0.42187,0.0625 -0.5039,0.148437 -0.0859,0.07422 -0.12891,0.167969 -0.12891,0.292969 0,0.160157 0.043,0.339844 0.12891,0.550781 l 1.41406,3.761719 1.39453,-3.0625 -0.35937,-0.972656 c -0.11719,-0.28125 -0.26953,-0.476563 -0.46485,-0.59375 -0.10156,-0.06641 -0.28906,-0.109375 -0.57031,-0.125 v -0.253906 h 3.10547 v 0.253906 c -0.33594,0.01563 -0.57813,0.07813 -0.71875,0.191406 -0.0977,0.07031 -0.14453,0.1875 -0.14453,0.355469 0,0.101562 0.0195,0.203125 0.0625,0.296875 l 1.48047,3.761719 1.39453,-3.613282 c 0.082,-0.265624 0.125,-0.476562 0.125,-0.632812 0,-0.08594 -0.0508,-0.160156 -0.14844,-0.234375 -0.082,-0.06641 -0.26172,-0.109375 -0.52734,-0.125 V 76.230469 H 390.75 v 0.253906 c -0.42188,0.07422 -0.73438,0.351563 -0.92969,0.84375 l -2.17578,5.644531 h -0.29687 l -1.64844,-4.183594 -1.90235,4.183594 h -0.27343 l -2.09375,-5.496094 c -0.14063,-0.347656 -0.28516,-0.582031 -0.42188,-0.695312 -0.125,-0.128906 -0.33984,-0.222656 -0.63281,-0.296875 z m 0,0"
     id="path76" />
  <path
     fill="none"
     stroke-width="0.40252"
     stroke-linecap="round"
     stroke-linejoin="round"
     stroke="#000000"
     stroke-opacity="1"
     stroke-miterlimit="10"
     d="m 368.96094,2.820312 -0.1211,1.320313 -0.23828,1.203125 -0.24219,1.316406 -0.11718,0.601563 -0.1211,0.601562 V 8.460938 L 368,9.0625 367.87891,9.660156 v 0.601563 l -0.11719,0.480469 v 1.078124 l -0.1211,0.601563 v 1.441406 l 0.1211,0.480469 v 0.839844 l 0.11719,0.359375 0.24218,0.71875 0.1211,0.238281 0.11718,0.363281 v 0.117188 l 0.24219,0.242187 0.11719,0.121094 0.12109,0.117188 0.24219,0.242187 h 0.11719 l 0.12109,0.117187 h 0.35938 l 0.12109,0.121094 h 1.55859 l 0.35938,-0.121094 0.48047,-0.117187 0.35937,-0.121094 0.48047,-0.121093 0.96094,-0.238282 0.96094,-0.242187 0.48047,-0.117188 0.48046,-0.121093 h 0.48047 l 0.47657,-0.121094 h 1.32031 l 0.48047,0.121094 h 0.35937 l 0.48047,0.121093 0.48047,0.117188 0.35937,0.121093 0.48047,0.121094 0.35938,0.238282 0.83984,0.242187 0.83985,0.359375"
     id="path77" />
  <path
     fill="none"
     stroke-width="0.40252"
     stroke-linecap="round"
     stroke-linejoin="round"
     stroke="#000000"
     stroke-opacity="1"
     stroke-miterlimit="10"
     d="M 395.48047,42.421875 395,40.980469 l -0.23828,-0.597657 -0.1211,-0.722656 -0.23828,-0.71875 -0.12109,-0.71875 -0.12109,-0.601562 -0.1211,-0.71875 -0.11719,-0.601563 v -0.359375 l -0.12109,-0.359375 v -0.601562 l 0.12109,-0.359375 v -0.960938 l 0.11719,-0.359375 v -0.359375 l 0.1211,-0.238281 0.12109,-0.359375 0.12109,-0.242188 0.11719,-0.359374 0.12109,-0.359376 0.23829,-0.242187 L 395,30.78125 l 0.24219,-0.238281 0.23828,-0.359375 0.12109,-0.242188 0.48047,-0.597656 0.47656,-0.601562 0.48047,-0.480469 0.24219,-0.359375 0.12109,-0.242188 v -0.117187 l 0.11719,-0.121094 v -0.121094 l 0.12109,-0.117187 v -0.722656 l -0.12109,-0.117188 v -0.121094 l -0.11719,-0.121094 v -0.121093 l -0.12109,-0.117188 -0.12109,-0.121093 -0.1211,-0.242188 -0.23828,-0.238281 -0.24219,-0.238281 -0.35937,-0.242188 -0.23828,-0.238281 -0.35938,-0.242188 -0.35937,-0.117187 -0.36328,-0.242188 -0.71875,-0.480468"
     id="path78" />
  <path
     fill-rule="nonzero"
     fill="#000000"
     fill-opacity="1"
     d="m 386.87891,6.183594 v 3.238281 h 2.28515 v 0.753906 h -2.28515 v 6.367188 c 0,0.636719 0.0898,1.0625 0.26562,1.285156 0.17578,0.222656 0.41016,0.332031 0.71094,0.332031 0.23047,0 0.46484,-0.07031 0.6875,-0.222656 0.22265,-0.144531 0.38672,-0.359375 0.50781,-0.640625 h 0.42188 c -0.25391,0.695313 -0.60938,1.21875 -1.0625,1.574219 -0.46094,0.355468 -0.9336,0.53125 -1.42188,0.53125 -0.32812,0 -0.65234,-0.08984 -0.97656,-0.265625 -0.3086,-0.179688 -0.54297,-0.433594 -0.6875,-0.777344 -0.14844,-0.335937 -0.21875,-0.863281 -0.21875,-1.574219 v -6.609375 h -1.55469 V 9.820312 c 0.38281,-0.160156 0.78125,-0.425781 1.19922,-0.800781 0.41016,-0.378906 0.78125,-0.828125 1.10937,-1.351562 0.16016,-0.265625 0.38672,-0.757813 0.6875,-1.484375 z m 0,0"
     id="path79" />
  <path
     fill-rule="nonzero"
     fill="#000000"
     fill-opacity="1"
     d="m 391.95312,17.84375 v 4.523438 c 0,0.640624 0.0664,1.042968 0.19922,1.222656 0.1875,0.21875 0.44532,0.332031 0.75391,0.332031 h 0.62109 V 24.1875 h -4.10547 v -0.265625 h 0.3125 c 0.1875,0 0.36719,-0.05078 0.53125,-0.15625 0.17969,-0.09766 0.29688,-0.230469 0.35547,-0.398437 0.0547,-0.179688 0.0899,-0.511719 0.0899,-1 V 17.84375 h -1.33203 V 17.3125 h 1.33203 v -0.46875 c 0,-0.675781 0.10937,-1.25 0.33203,-1.730469 0.22265,-0.484375 0.55469,-0.867187 1,-1.152343 0.45312,-0.292969 0.97265,-0.441407 1.55078,-0.441407 0.51562,0 1,0.171875 1.44141,0.507813 0.29296,0.222656 0.44531,0.476562 0.44531,0.753906 0,0.152344 -0.0664,0.289062 -0.19922,0.421875 -0.13281,0.132813 -0.27734,0.199219 -0.42188,0.199219 -0.12109,0 -0.24609,-0.03125 -0.3789,-0.109375 -0.1211,-0.08984 -0.27735,-0.265625 -0.46485,-0.53125 -0.17578,-0.277344 -0.34765,-0.46875 -0.51171,-0.554688 -0.14844,-0.101562 -0.32032,-0.15625 -0.50782,-0.15625 -0.23828,0 -0.4375,0.06641 -0.60156,0.199219 -0.16406,0.121094 -0.28125,0.3125 -0.35156,0.578125 -0.0625,0.253906 -0.0899,0.90625 -0.0899,1.972656 V 17.3125 h 1.77344 v 0.53125 z m 0,0"
     id="path80" />
  <path
     fill="none"
     stroke-width="0.685985"
     stroke-linecap="round"
     stroke-linejoin="round"
     stroke="#000000"
     stroke-opacity="1"
     stroke-miterlimit="10"
     d="M 154.64062,61.980469 V 79.5"
     id="path81" />
  <path
     fill="none"
     stroke-width="0.685985"
     stroke-linecap="round"
     stroke-linejoin="round"
     stroke="#000000"
     stroke-opacity="1"
     stroke-miterlimit="10"
     d="M 196.51953,61.980469 V 79.5"
     id="path82" />
  <path
     fill="none"
     stroke-width="0.685985"
     stroke-linecap="round"
     stroke-linejoin="round"
     stroke="#000000"
     stroke-opacity="1"
     stroke-miterlimit="10"
     d="m 163.40234,75.183594 h 24.47657"
     id="path83" />
  <path
     fill-rule="nonzero"
     fill="#000000"
     fill-opacity="1"
     stroke-width="0.12"
     stroke-linecap="round"
     stroke-linejoin="miter"
     stroke="#000000"
     stroke-opacity="1"
     stroke-miterlimit="10"
     d="m 163.40234,73.742188 v 2.878906 l -8.76172,-1.4375 z m 0,0"
     id="path84" />
  <path
     fill-rule="nonzero"
     fill="#000000"
     fill-opacity="1"
     stroke-width="0.12"
     stroke-linecap="round"
     stroke-linejoin="miter"
     stroke="#000000"
     stroke-opacity="1"
     stroke-miterlimit="10"
     d="m 187.87891,73.742188 v 2.878906 l 8.64062,-1.4375 z m 0,0"
     id="path85" />
  <path
     fill-rule="nonzero"
     fill="#000000"
     fill-opacity="1"
     d="m 169.12891,87.945312 c 0.84375,-1.164062 1.75,-1.75 2.71875,-1.75 0.88281,0 1.65625,0.382813 2.3125,1.140626 0.66406,0.761718 1,1.796874 1,3.109374 0,1.53125 -0.51172,2.773438 -1.53125,3.71875 -0.875,0.804688 -1.85157,1.203126 -2.92188,1.203126 -0.51172,0 -1.02734,-0.08984 -1.54687,-0.265626 -0.51172,-0.1875 -1.03907,-0.460937 -1.57813,-0.828124 v -8.96875 c 0,-0.976563 -0.0273,-1.582032 -0.0781,-1.8125 -0.043,-0.226563 -0.11719,-0.378907 -0.21875,-0.453126 -0.10547,-0.08203 -0.23047,-0.125 -0.375,-0.125 -0.17969,0 -0.40235,0.04688 -0.67188,0.140626 l -0.125,-0.328126 2.59375,-1.0625 h 0.42188 z m 0,0.59375 v 5.1875 c 0.32031,0.3125 0.65625,0.554688 1,0.71875 0.34375,0.15625 0.69531,0.234376 1.0625,0.234376 0.57031,0 1.10156,-0.3125 1.59375,-0.9375 0.5,-0.632813 0.75,-1.554688 0.75,-2.765626 0,-1.101562 -0.25,-1.953124 -0.75,-2.546874 -0.49219,-0.59375 -1.05469,-0.890626 -1.6875,-0.890626 -0.33594,0 -0.66797,0.08594 -1,0.25 -0.25,0.125 -0.57422,0.375 -0.96875,0.75 z m 0,0"
     id="path86" />
  <path
     fill-rule="nonzero"
     fill="#000000"
     fill-opacity="1"
     d="m 175.85156,89.039062 h 2.53125 v 0.25 c -0.23047,0.02344 -0.38281,0.0625 -0.45312,0.125 -0.0742,0.0625 -0.10938,0.15625 -0.10938,0.28125 0,0.136719 0.0352,0.304688 0.10938,0.5 l 1.29687,3.484376 1.29688,-2.84375 -0.34375,-0.890626 c -0.10547,-0.257812 -0.24219,-0.441406 -0.40625,-0.546874 -0.10547,-0.0625 -0.28907,-0.09766 -0.54688,-0.109376 v -0.25 h 2.875 v 0.25 c -0.3125,0.01172 -0.53906,0.07031 -0.67187,0.171876 -0.0859,0.07422 -0.125,0.183593 -0.125,0.328124 0,0.09375 0.0156,0.1875 0.0469,0.28125 l 1.375,3.484376 1.28125,-3.359376 c 0.082,-0.238281 0.125,-0.429687 0.125,-0.578124 0,-0.08203 -0.043,-0.15625 -0.125,-0.21875 -0.0859,-0.0625 -0.25,-0.09766 -0.5,-0.109376 v -0.25 h 1.90625 v 0.25 c -0.38672,0.05469 -0.66797,0.3125 -0.84375,0.78125 l -2.03125,5.21875 h -0.26562 l -1.51563,-3.875 -1.76562,3.875 h -0.25 l -1.9375,-5.09375 c -0.125,-0.320312 -0.25,-0.539062 -0.375,-0.65625 -0.125,-0.113281 -0.32032,-0.195312 -0.57813,-0.25 z m 0,0"
     id="path87" />
  <path
     fill="none"
     stroke-width="0.685985"
     stroke-linecap="round"
     stroke-linejoin="round"
     stroke="#000000"
     stroke-opacity="1"
     stroke-miterlimit="10"
     d="M 280.13281,61.980469 V 79.5"
     id="path88" />
  <path
     fill="none"
     stroke-width="0.685985"
     stroke-linecap="round"
     stroke-linejoin="round"
     stroke="#000000"
     stroke-opacity="1"
     stroke-miterlimit="10"
     d="M 322.01172,61.980469 V 79.5"
     id="path89" />
  <path
     fill="none"
     stroke-width="0.685985"
     stroke-linecap="round"
     stroke-linejoin="round"
     stroke="#000000"
     stroke-opacity="1"
     stroke-miterlimit="10"
     d="m 288.89453,75.183594 h 24.47656"
     id="path90" />
  <path
     fill-rule="nonzero"
     fill="#000000"
     fill-opacity="1"
     stroke-width="0.12"
     stroke-linecap="round"
     stroke-linejoin="miter"
     stroke="#000000"
     stroke-opacity="1"
     stroke-miterlimit="10"
     d="m 288.89453,73.742188 v 2.878906 l -8.76172,-1.4375 z m 0,0"
     id="path91" />
  <path
     fill-rule="nonzero"
     fill="#000000"
     fill-opacity="1"
     stroke-width="0.12"
     stroke-linecap="round"
     stroke-linejoin="miter"
     stroke="#000000"
     stroke-opacity="1"
     stroke-miterlimit="10"
     d="m 313.37109,73.742188 v 2.878906 l 8.64063,-1.4375 z m 0,0"
     id="path92" />
  <path
     fill-rule="nonzero"
     fill="#000000"
     fill-opacity="1"
     d="m 291.62109,87.945312 c 0.84375,-1.164062 1.75,-1.75 2.71875,-1.75 0.88282,0 1.65625,0.382813 2.3125,1.140626 0.66407,0.761718 1,1.796874 1,3.109374 0,1.53125 -0.51172,2.773438 -1.53125,3.71875 -0.875,0.804688 -1.85156,1.203126 -2.92187,1.203126 -0.51172,0 -1.02735,-0.08984 -1.54688,-0.265626 -0.51172,-0.1875 -1.03906,-0.460937 -1.57812,-0.828124 v -8.96875 c 0,-0.976563 -0.0274,-1.582032 -0.0781,-1.8125 -0.043,-0.226563 -0.11718,-0.378907 -0.21875,-0.453126 -0.10547,-0.08203 -0.23047,-0.125 -0.375,-0.125 -0.17968,0 -0.40234,0.04688 -0.67187,0.140626 l -0.125,-0.328126 2.59375,-1.0625 h 0.42187 z m 0,0.59375 v 5.1875 c 0.32032,0.3125 0.65625,0.554688 1,0.71875 0.34375,0.15625 0.69532,0.234376 1.0625,0.234376 0.57032,0 1.10157,-0.3125 1.59375,-0.9375 0.5,-0.632813 0.75,-1.554688 0.75,-2.765626 0,-1.101562 -0.25,-1.953124 -0.75,-2.546874 -0.49218,-0.59375 -1.05468,-0.890626 -1.6875,-0.890626 -0.33593,0 -0.66797,0.08594 -1,0.25 -0.25,0.125 -0.57422,0.375 -0.96875,0.75 z m 0,0"
     id="path93" />
  <path
     fill-rule="nonzero"
     fill="#000000"
     fill-opacity="1"
     d="m 298.34375,89.039062 h 2.53125 v 0.25 c -0.23047,0.02344 -0.38281,0.0625 -0.45313,0.125 -0.0742,0.0625 -0.10937,0.15625 -0.10937,0.28125 0,0.136719 0.0352,0.304688 0.10937,0.5 l 1.29688,3.484376 1.29687,-2.84375 -0.34375,-0.890626 c -0.10546,-0.257812 -0.24218,-0.441406 -0.40625,-0.546874 -0.10546,-0.0625 -0.28906,-0.09766 -0.54687,-0.109376 v -0.25 h 2.875 v 0.25 c -0.3125,0.01172 -0.53906,0.07031 -0.67188,0.171876 -0.0859,0.07422 -0.125,0.183593 -0.125,0.328124 0,0.09375 0.0156,0.1875 0.0469,0.28125 l 1.375,3.484376 1.28125,-3.359376 c 0.082,-0.238281 0.125,-0.429687 0.125,-0.578124 0,-0.08203 -0.043,-0.15625 -0.125,-0.21875 -0.0859,-0.0625 -0.25,-0.09766 -0.5,-0.109376 v -0.25 h 1.90625 v 0.25 c -0.38672,0.05469 -0.66797,0.3125 -0.84375,0.78125 l -2.03125,5.21875 h -0.26563 l -1.51562,-3.875 -1.76563,3.875 h -0.25 l -1.9375,-5.09375 c -0.125,-0.320312 -0.25,-0.539062 -0.375,-0.65625 -0.125,-0.113281 -0.32031,-0.195312 -0.57812,-0.25 z m 0,0"
     id="path94" />
  <path
     fill-rule="nonzero"
     fill="#000000"
     fill-opacity="1"
     d="m 313.23047,93.125 c -0.64844,1.0625 -1.25391,1.453125 -2.14063,1.453125 -0.78125,0 -1.36718,-0.390625 -1.77734,-1.191406 -0.23828,-0.519531 -0.34766,-0.976563 -0.36719,-1.820313 h 4.24219 c -0.10938,-0.886718 -0.23828,-1.296875 -0.58203,-1.730468 -0.41406,-0.5 -1.0625,-0.78125 -1.77735,-0.78125 -0.6914,0 -1.34375,0.238281 -1.86328,0.714843 -0.64843,0.5625 -1.01562,1.539063 -1.01562,2.664063 0,1.925781 0.99609,3.09375 2.57422,3.09375 1.32422,0 2.36328,-0.800782 2.94531,-2.292969 z m -4.26563,-1.992188 c 0.15235,-1.082031 0.62891,-1.601562 1.47266,-1.601562 0.84375,0 1.17187,0.390625 1.34375,1.601562 z m 0,0"
     id="path95" />
  <path
     fill="none"
     stroke-width="1.56"
     stroke-linecap="round"
     stroke-linejoin="round"
     stroke="#000000"
     stroke-opacity="1"
     stroke-miterlimit="10"
     d="m 28.671875,53.222656 h 42"
     id="path96" />
  <path
     fill="none"
     stroke-width="0.685985"
     stroke-linecap="round"
     stroke-linejoin="round"
     stroke="#000000"
     stroke-opacity="1"
     stroke-miterlimit="10"
     d="M 28.398438,61.980469 V 79.5"
     id="path97" />
  <path
     fill="none"
     stroke-width="0.685985"
     stroke-linecap="round"
     stroke-linejoin="round"
     stroke="#000000"
     stroke-opacity="1"
     stroke-miterlimit="10"
     d="M 70.277344,61.980469 V 79.5"
     id="path98" />
  <path
     fill="none"
     stroke-width="0.685985"
     stroke-linecap="round"
     stroke-linejoin="round"
     stroke="#000000"
     stroke-opacity="1"
     stroke-miterlimit="10"
     d="M 37.160156,75.183594 H 61.636719"
     id="path99" />
  <path
     fill-rule="nonzero"
     fill="#000000"
     fill-opacity="1"
     stroke-width="0.12"
     stroke-linecap="round"
     stroke-linejoin="miter"
     stroke="#000000"
     stroke-opacity="1"
     stroke-miterlimit="10"
     d="m 37.160156,73.742188 v 2.878906 l -8.761718,-1.4375 z m 0,0"
     id="path100" />
  <path
     fill-rule="nonzero"
     fill="#000000"
     fill-opacity="1"
     stroke-width="0.12"
     stroke-linecap="round"
     stroke-linejoin="miter"
     stroke="#000000"
     stroke-opacity="1"
     stroke-miterlimit="10"
     d="m 61.636719,73.742188 v 2.878906 l 8.640625,-1.4375 z m 0,0"
     id="path101" />
  <path
     fill-rule="nonzero"
     fill="#000000"
     fill-opacity="1"
     d="m 39.886719,87.945312 c 0.84375,-1.164062 1.75,-1.75 2.71875,-1.75 0.882812,0 1.65625,0.382813 2.3125,1.140626 0.664062,0.761718 1,1.796874 1,3.109374 0,1.53125 -0.511719,2.773438 -1.53125,3.71875 -0.875,0.804688 -1.851563,1.203126 -2.921875,1.203126 -0.511719,0 -1.027344,-0.08984 -1.546875,-0.265626 -0.511719,-0.1875 -1.039063,-0.460937 -1.578125,-0.828124 v -8.96875 c 0,-0.976563 -0.02734,-1.582032 -0.07813,-1.8125 -0.04297,-0.226563 -0.117188,-0.378907 -0.21875,-0.453126 -0.105469,-0.08203 -0.230469,-0.125 -0.375,-0.125 -0.179688,0 -0.402344,0.04688 -0.671875,0.140626 l -0.125,-0.328126 2.59375,-1.0625 h 0.421875 z m 0,0.59375 v 5.1875 c 0.320312,0.3125 0.65625,0.554688 1,0.71875 0.34375,0.15625 0.695312,0.234376 1.0625,0.234376 0.570312,0 1.101562,-0.3125 1.59375,-0.9375 0.5,-0.632813 0.75,-1.554688 0.75,-2.765626 0,-1.101562 -0.25,-1.953124 -0.75,-2.546874 -0.492188,-0.59375 -1.054688,-0.890626 -1.6875,-0.890626 -0.335938,0 -0.667969,0.08594 -1,0.25 -0.25,0.125 -0.574219,0.375 -0.96875,0.75 z m 0,0"
     id="path102" />
  <path
     fill-rule="nonzero"
     fill="#000000"
     fill-opacity="1"
     d="m 46.609375,89.039062 h 2.53125 v 0.25 c -0.230469,0.02344 -0.382813,0.0625 -0.453125,0.125 -0.07422,0.0625 -0.109375,0.15625 -0.109375,0.28125 0,0.136719 0.03516,0.304688 0.109375,0.5 l 1.296875,3.484376 1.296875,-2.84375 -0.34375,-0.890626 c -0.105469,-0.257812 -0.242188,-0.441406 -0.40625,-0.546874 -0.105469,-0.0625 -0.289062,-0.09766 -0.546875,-0.109376 v -0.25 h 2.875 v 0.25 c -0.3125,0.01172 -0.539063,0.07031 -0.671875,0.171876 -0.08594,0.07422 -0.125,0.183593 -0.125,0.328124 0,0.09375 0.01563,0.1875 0.04687,0.28125 l 1.375,3.484376 1.28125,-3.359376 c 0.08203,-0.238281 0.125,-0.429687 0.125,-0.578124 0,-0.08203 -0.04297,-0.15625 -0.125,-0.21875 -0.08594,-0.0625 -0.25,-0.09766 -0.5,-0.109376 v -0.25 h 1.90625 v 0.25 c -0.386719,0.05469 -0.667969,0.3125 -0.84375,0.78125 l -2.03125,5.21875 h -0.26562 l -1.515625,-3.875 -1.765625,3.875 H 49.5 l -1.9375,-5.09375 c -0.125,-0.320312 -0.25,-0.539062 -0.375,-0.65625 -0.125,-0.113281 -0.320312,-0.195312 -0.578125,-0.25 z m 0,0"
     id="path103" />
  <path
     fill-rule="nonzero"
     fill="#000000"
     fill-opacity="1"
     d="m 61.5,93.125 c -0.648438,1.0625 -1.257812,1.453125 -2.144531,1.453125 -0.777344,0 -1.363281,-0.390625 -1.773438,-1.191406 -0.238281,-0.519531 -0.347656,-0.976563 -0.367187,-1.820313 h 4.242187 c -0.109375,-0.886718 -0.238281,-1.296875 -0.585937,-1.730468 -0.410156,-0.5 -1.058594,-0.78125 -1.773438,-0.78125 -0.695312,0 -1.34375,0.238281 -1.863281,0.714843 -0.648437,0.5625 -1.015625,1.539063 -1.015625,2.664063 0,1.925781 0.996094,3.09375 2.574219,3.09375 1.320312,0 2.359375,-0.800782 2.945312,-2.292969 z m -4.265625,-1.992188 c 0.152344,-1.082031 0.628906,-1.601562 1.472656,-1.601562 0.84375,0 1.167969,0.390625 1.34375,1.601562 z m 0,0"
     id="path104" />
</svg>
